<svg width="299" height="211" viewBox="0 0 299 211" fill="none" xmlns="http://www.w3.org/2000/svg">
<path d="M0.856534 27V22.5511L1.59801 22.4872C2.55256 22.4105 3.32386 22.0483 3.91193 21.4006C4.5 20.7443 4.93892 19.7003 5.22869 18.2685C5.52699 16.8281 5.71875 14.8935 5.80398 12.4645L6.23864 0.818181H24.0085V27H18.6264V5.25426H11.3778L10.9688 14.3693C10.8324 17.3011 10.483 19.696 9.92045 21.554C9.36648 23.4119 8.48011 24.7841 7.26136 25.6705C6.05114 26.5568 4.39347 27 2.28835 27H0.856534ZM33.6733 19.8153L40.7429 7.36364H46.1122V27H40.9219V14.5099L33.8778 27H28.4702V7.36364H33.6733V19.8153ZM67.5192 7.36364V27H62.3544V7.36364H67.5192ZM65.0007 15.9801V20.2756C64.5831 20.4631 64.0632 20.642 63.4411 20.8125C62.8189 20.9744 62.1669 21.1065 61.4851 21.2088C60.8033 21.3111 60.1641 21.3622 59.5675 21.3622C56.7464 21.3622 54.5263 20.7827 52.907 19.6236C51.2876 18.456 50.478 16.5937 50.478 14.0369V7.33807H55.6172V14.0369C55.6172 14.7955 55.745 15.3963 56.0007 15.8395C56.2649 16.2827 56.6825 16.6023 57.2536 16.7983C57.8331 16.9858 58.6044 17.0795 59.5675 17.0795C60.4624 17.0795 61.3402 16.9858 62.201 16.7983C63.0618 16.6108 63.995 16.3381 65.0007 15.9801ZM85.4137 15.0085V19.2912H75.1609V15.0085H85.4137ZM76.9506 7.36364V27H71.7475V7.36364H76.9506ZM88.8271 7.36364V27H83.6623V7.36364H88.8271ZM96.4656 13.3977H102.333C104.933 13.3977 106.961 14.0199 108.419 15.2642C109.876 16.5 110.605 18.1534 110.605 20.2244C110.605 21.571 110.277 22.7557 109.62 23.7784C108.964 24.7926 108.018 25.5852 106.782 26.1562C105.547 26.7188 104.064 27 102.333 27H93.0522V7.36364H98.2553V22.7173H102.333C103.245 22.7173 103.995 22.4872 104.583 22.027C105.172 21.5668 105.47 20.9787 105.478 20.2628C105.47 19.5043 105.172 18.8864 104.583 18.4091C103.995 17.9233 103.245 17.6804 102.333 17.6804H96.4656V13.3977ZM112.714 27V7.36364H118.16V27H112.714ZM127.716 19.8153L134.786 7.36364H140.155V27H134.965V14.5099L127.921 27H122.513V7.36364H127.716V19.8153ZM133.853 0.511362H137.65C137.641 2.0625 137.066 3.31108 135.924 4.2571C134.79 5.20312 133.256 5.67614 131.321 5.67614C129.378 5.67614 127.84 5.20312 126.706 4.2571C125.573 3.31108 125.006 2.0625 125.006 0.511362H128.777C128.769 1.09943 128.956 1.62784 129.34 2.09659C129.732 2.56534 130.392 2.79972 131.321 2.79972C132.225 2.79972 132.873 2.5696 133.265 2.10938C133.657 1.64915 133.853 1.11648 133.853 0.511362ZM152.853 27V7.36364H158.299V14.983H159.833L165.177 7.36364H171.569L164.627 17.1051L171.646 27H165.177L160.332 20.0327H158.299V27H152.853ZM179.546 27.3707C178.293 27.3707 177.177 27.1534 176.197 26.7188C175.217 26.2756 174.441 25.6236 173.87 24.7628C173.308 23.8935 173.026 22.8111 173.026 21.5156C173.026 20.4247 173.227 19.5085 173.627 18.767C174.028 18.0256 174.573 17.429 175.263 16.9773C175.954 16.5256 176.738 16.1847 177.616 15.9545C178.502 15.7244 179.431 15.5625 180.403 15.4688C181.545 15.3494 182.465 15.2386 183.164 15.1364C183.863 15.0256 184.37 14.8636 184.685 14.6506C185.001 14.4375 185.158 14.1222 185.158 13.7045V13.6278C185.158 12.8182 184.903 12.1918 184.391 11.7486C183.888 11.3054 183.173 11.0838 182.244 11.0838C181.263 11.0838 180.484 11.3011 179.904 11.7358C179.325 12.1619 178.941 12.6989 178.754 13.3466L173.717 12.9375C173.972 11.7443 174.475 10.7131 175.225 9.84375C175.975 8.96591 176.942 8.29261 178.127 7.82386C179.32 7.34659 180.701 7.10795 182.269 7.10795C183.36 7.10795 184.404 7.2358 185.401 7.49148C186.407 7.74716 187.298 8.14347 188.073 8.6804C188.857 9.21733 189.475 9.90767 189.927 10.7514C190.379 11.5866 190.604 12.5881 190.604 13.7557V27H185.44V24.277H185.286C184.971 24.8906 184.549 25.4318 184.021 25.9006C183.492 26.3608 182.857 26.723 182.116 26.9872C181.374 27.2429 180.518 27.3707 179.546 27.3707ZM181.106 23.6122C181.907 23.6122 182.614 23.4545 183.228 23.1392C183.842 22.8153 184.323 22.3807 184.673 21.8352C185.022 21.2898 185.197 20.6719 185.197 19.9815V17.8977C185.026 18.0085 184.792 18.1108 184.494 18.2045C184.204 18.2898 183.876 18.3707 183.509 18.4474C183.143 18.5156 182.776 18.5795 182.41 18.6392C182.043 18.6903 181.711 18.7372 181.413 18.7798C180.773 18.8736 180.215 19.0227 179.738 19.2273C179.261 19.4318 178.89 19.7088 178.626 20.0582C178.362 20.3991 178.229 20.8253 178.229 21.3366C178.229 22.0781 178.498 22.6449 179.035 23.0369C179.58 23.4205 180.271 23.6122 181.106 23.6122ZM211.155 0.153407L212.817 3.70739C212.263 4.16761 211.649 4.50852 210.976 4.73011C210.303 4.94318 209.497 5.08381 208.56 5.15199C207.631 5.22017 206.497 5.26704 205.159 5.29261C203.642 5.30966 202.406 5.55256 201.452 6.02131C200.497 6.49006 199.773 7.22727 199.278 8.23295C198.784 9.23011 198.46 10.5341 198.307 12.1449H198.499C199.087 10.9432 199.913 10.0142 200.979 9.35795C202.053 8.7017 203.378 8.37358 204.955 8.37358C206.625 8.37358 208.087 8.74006 209.339 9.47301C210.601 10.206 211.581 11.2585 212.28 12.6307C212.979 14.0028 213.328 15.6477 213.328 17.5653C213.328 19.5597 212.936 21.294 212.152 22.7685C211.376 24.2344 210.273 25.3722 208.841 26.1818C207.409 26.983 205.705 27.3835 203.727 27.3835C201.741 27.3835 200.028 26.9659 198.588 26.1307C197.156 25.2955 196.048 24.0639 195.264 22.4361C194.489 20.8082 194.101 18.8054 194.101 16.4276V14.8168C194.101 10.0866 195.021 6.57955 196.862 4.29545C198.703 2.01136 201.409 0.852272 204.98 0.818181C205.952 0.801135 206.83 0.796874 207.614 0.805397C208.398 0.81392 209.084 0.775568 209.672 0.690341C210.268 0.605114 210.763 0.426136 211.155 0.153407ZM203.753 23.1648C204.588 23.1648 205.304 22.9474 205.901 22.5128C206.506 22.0781 206.97 21.456 207.294 20.6463C207.626 19.8366 207.793 18.8693 207.793 17.7443C207.793 16.6278 207.626 15.6818 207.294 14.9062C206.97 14.1222 206.506 13.5256 205.901 13.1165C205.295 12.7074 204.571 12.5028 203.727 12.5028C203.097 12.5028 202.53 12.6179 202.027 12.848C201.524 13.0781 201.094 13.419 200.736 13.8707C200.386 14.3139 200.114 14.8636 199.918 15.5199C199.73 16.1676 199.636 16.9091 199.636 17.7443C199.636 19.4233 199.999 20.7486 200.723 21.7202C201.456 22.6832 202.466 23.1648 203.753 23.1648ZM222.146 19.8153L229.216 7.36364H234.585V27H229.395V14.5099L222.35 27H216.943V7.36364H222.146V19.8153ZM252.617 15.0085V19.2912H242.364V15.0085H252.617ZM244.154 7.36364V27H238.951V7.36364H244.154ZM256.03 7.36364V27H250.865V7.36364H256.03ZM269.204 27.3835C267.184 27.3835 265.446 26.9744 263.988 26.1562C262.539 25.3295 261.423 24.1619 260.639 22.6534C259.855 21.1364 259.463 19.3423 259.463 17.2713C259.463 15.2514 259.855 13.4787 260.639 11.9531C261.423 10.4276 262.527 9.23864 263.95 8.38636C265.382 7.53409 267.061 7.10795 268.987 7.10795C270.282 7.10795 271.488 7.31676 272.605 7.73438C273.73 8.14347 274.71 8.76136 275.545 9.58807C276.389 10.4148 277.045 11.4545 277.514 12.7074C277.983 13.9517 278.217 15.4091 278.217 17.0795V18.5753H261.636V15.2003H273.091C273.091 14.4162 272.92 13.7216 272.579 13.1165C272.238 12.5114 271.765 12.0384 271.16 11.6974C270.564 11.348 269.869 11.1733 269.076 11.1733C268.25 11.1733 267.517 11.3651 266.877 11.7486C266.247 12.1236 265.752 12.6307 265.395 13.2699C265.037 13.9006 264.853 14.6037 264.845 15.3793V18.5881C264.845 19.5597 265.024 20.3991 265.382 21.1065C265.748 21.8139 266.264 22.3594 266.929 22.7429C267.593 23.1264 268.382 23.3182 269.294 23.3182C269.899 23.3182 270.453 23.233 270.956 23.0625C271.458 22.892 271.889 22.6364 272.247 22.2955C272.605 21.9545 272.877 21.5369 273.065 21.0426L278.102 21.375C277.846 22.5852 277.322 23.642 276.529 24.5455C275.745 25.4403 274.731 26.1392 273.487 26.642C272.251 27.1364 270.824 27.3835 269.204 27.3835ZM280.256 11.6463V7.36364H298.051V11.6463H291.723V27H286.533V11.6463H280.256ZM2.27557 88.8182H9.10227L16.3125 106.409H16.6193L23.8295 88.8182H30.6562V115H25.2869V97.9588H25.0696L18.294 114.872H14.6378L7.86222 97.8949H7.64489V115H2.27557V88.8182ZM43.9869 115.384C42.0011 115.384 40.2837 114.962 38.8349 114.118C37.3945 113.266 36.2823 112.081 35.4982 110.564C34.7141 109.038 34.3221 107.27 34.3221 105.259C34.3221 103.23 34.7141 101.457 35.4982 99.9403C36.2823 98.4148 37.3945 97.2301 38.8349 96.3864C40.2837 95.5341 42.0011 95.108 43.9869 95.108C45.9727 95.108 47.6857 95.5341 49.1261 96.3864C50.5749 97.2301 51.6914 98.4148 52.4755 99.9403C53.2596 101.457 53.6516 103.23 53.6516 105.259C53.6516 107.27 53.2596 109.038 52.4755 110.564C51.6914 112.081 50.5749 113.266 49.1261 114.118C47.6857 114.962 45.9727 115.384 43.9869 115.384ZM44.0124 111.165C44.9158 111.165 45.6701 110.909 46.2752 110.398C46.8803 109.878 47.3363 109.17 47.6431 108.276C47.9585 107.381 48.1161 106.362 48.1161 105.22C48.1161 104.078 47.9585 103.06 47.6431 102.165C47.3363 101.27 46.8803 100.562 46.2752 100.043C45.6701 99.5227 44.9158 99.2628 44.0124 99.2628C43.1005 99.2628 42.3335 99.5227 41.7113 100.043C41.0977 100.562 40.6332 101.27 40.3178 102.165C40.011 103.06 39.8576 104.078 39.8576 105.22C39.8576 106.362 40.011 107.381 40.3178 108.276C40.6332 109.17 41.0977 109.878 41.7113 110.398C42.3335 110.909 43.1005 111.165 44.0124 111.165ZM62.396 107.815L69.4656 95.3636H74.8349V115H69.6445V102.51L62.6005 115H57.1928V95.3636H62.396V107.815ZM87.5327 115V95.3636H104.702V115H99.4986V99.6463H92.6719V115H87.5327ZM117.92 115.384C115.935 115.384 114.217 114.962 112.768 114.118C111.328 113.266 110.216 112.081 109.432 110.564C108.648 109.038 108.256 107.27 108.256 105.259C108.256 103.23 108.648 101.457 109.432 99.9403C110.216 98.4148 111.328 97.2301 112.768 96.3864C114.217 95.5341 115.935 95.108 117.92 95.108C119.906 95.108 121.619 95.5341 123.06 96.3864C124.509 97.2301 125.625 98.4148 126.409 99.9403C127.193 101.457 127.585 103.23 127.585 105.259C127.585 107.27 127.193 109.038 126.409 110.564C125.625 112.081 124.509 113.266 123.06 114.118C121.619 114.962 119.906 115.384 117.92 115.384ZM117.946 111.165C118.849 111.165 119.604 110.909 120.209 110.398C120.814 109.878 121.27 109.17 121.577 108.276C121.892 107.381 122.05 106.362 122.05 105.22C122.05 104.078 121.892 103.06 121.577 102.165C121.27 101.27 120.814 100.562 120.209 100.043C119.604 99.5227 118.849 99.2628 117.946 99.2628C117.034 99.2628 116.267 99.5227 115.645 100.043C115.031 100.562 114.567 101.27 114.251 102.165C113.945 103.06 113.791 104.078 113.791 105.22C113.791 106.362 113.945 107.381 114.251 108.276C114.567 109.17 115.031 109.878 115.645 110.398C116.267 110.909 117.034 111.165 117.946 111.165ZM131.126 115V95.3636H136.572V102.983H138.107L143.45 95.3636H149.842L142.901 105.105L149.919 115H143.45L138.605 108.033H136.572V115H131.126ZM155.899 122.364C155.208 122.364 154.561 122.308 153.956 122.197C153.359 122.095 152.865 121.963 152.473 121.801L153.7 117.736C154.339 117.932 154.914 118.038 155.426 118.055C155.946 118.072 156.393 117.953 156.768 117.697C157.152 117.442 157.463 117.007 157.701 116.393L158.021 115.562L150.977 95.3636H156.704L160.77 109.784H160.974L165.078 95.3636H170.843L163.211 117.122C162.845 118.179 162.346 119.099 161.716 119.884C161.093 120.676 160.305 121.286 159.35 121.712C158.396 122.146 157.245 122.364 155.899 122.364ZM173.63 115V95.3636H190.799V115H185.596V99.6463H178.77V115H173.63ZM195.146 115V95.3636H200.592V102.983H202.126L207.47 95.3636H213.862L206.92 105.105L213.939 115H207.47L202.625 108.033H200.592V115H195.146ZM221.443 107.815L228.512 95.3636H233.882V115H228.691V102.51L221.647 115H216.24V95.3636H221.443V107.815ZM2.27557 176.818H7.7983V193.284H8.01562L19.3295 176.818H24.1747V203H18.6392V186.521H18.4474L7.0696 203H2.27557V176.818ZM27.636 197.439H32.9158C32.9414 198.087 33.2312 198.598 33.7852 198.973C34.3391 199.348 35.055 199.536 35.9329 199.536C36.8192 199.536 37.565 199.331 38.1701 198.922C38.7752 198.504 39.0778 197.908 39.0778 197.132C39.0778 196.655 38.9585 196.241 38.7198 195.892C38.4812 195.534 38.1488 195.253 37.7227 195.048C37.2965 194.844 36.8022 194.741 36.2397 194.741H33.4144V191.175H36.2397C37.0835 191.175 37.7312 190.979 38.1829 190.587C38.6431 190.195 38.8732 189.705 38.8732 189.116C38.8732 188.452 38.6346 187.919 38.1573 187.518C37.6886 187.109 37.0536 186.905 36.2525 186.905C35.4428 186.905 34.7695 187.088 34.2326 187.455C33.7042 187.812 33.4315 188.281 33.4144 188.861H28.1602C28.1772 187.685 28.5309 186.666 29.2212 185.805C29.9201 184.945 30.8576 184.28 32.0337 183.811C33.2184 183.342 34.5437 183.108 36.0096 183.108C37.6119 183.108 38.9925 183.334 40.1516 183.786C41.3192 184.229 42.2141 184.864 42.8363 185.69C43.467 186.517 43.7823 187.501 43.7823 188.643C43.7823 189.683 43.4414 190.553 42.7596 191.251C42.0778 191.95 41.1232 192.449 39.896 192.747V192.952C40.7056 193.003 41.4386 193.22 42.0948 193.604C42.7511 193.987 43.2752 194.516 43.6673 195.189C44.0593 195.854 44.2553 196.642 44.2553 197.554C44.2553 198.773 43.8974 199.817 43.1815 200.686C42.4741 201.555 41.494 202.224 40.2411 202.693C38.9968 203.153 37.5692 203.384 35.9585 203.384C34.3903 203.384 32.984 203.158 31.7397 202.706C30.5039 202.246 29.5195 201.572 28.7866 200.686C28.0621 199.8 27.6786 198.717 27.636 197.439ZM63.9205 176.153L65.5824 179.707C65.0284 180.168 64.4148 180.509 63.7415 180.73C63.0682 180.943 62.2628 181.084 61.3253 181.152C60.3963 181.22 59.2628 181.267 57.9247 181.293C56.4077 181.31 55.1719 181.553 54.2173 182.021C53.2628 182.49 52.5384 183.227 52.044 184.233C51.5497 185.23 51.2259 186.534 51.0724 188.145H51.2642C51.8523 186.943 52.679 186.014 53.7443 185.358C54.8182 184.702 56.1435 184.374 57.7202 184.374C59.3906 184.374 60.8523 184.74 62.1051 185.473C63.3665 186.206 64.3466 187.259 65.0455 188.631C65.7443 190.003 66.0938 191.648 66.0938 193.565C66.0938 195.56 65.7017 197.294 64.9176 198.768C64.142 200.234 63.0384 201.372 61.6065 202.182C60.1747 202.983 58.4702 203.384 56.4929 203.384C54.5071 203.384 52.794 202.966 51.3537 202.131C49.9219 201.295 48.8139 200.064 48.0298 198.436C47.2543 196.808 46.8665 194.805 46.8665 192.428V190.817C46.8665 186.087 47.7869 182.58 49.6278 180.295C51.4688 178.011 54.1747 176.852 57.7457 176.818C58.7173 176.801 59.5952 176.797 60.3793 176.805C61.1634 176.814 61.8494 176.776 62.4375 176.69C63.0341 176.605 63.5284 176.426 63.9205 176.153ZM56.5185 199.165C57.3537 199.165 58.0696 198.947 58.6662 198.513C59.2713 198.078 59.7358 197.456 60.0597 196.646C60.392 195.837 60.5582 194.869 60.5582 193.744C60.5582 192.628 60.392 191.682 60.0597 190.906C59.7358 190.122 59.2713 189.526 58.6662 189.116C58.0611 188.707 57.3366 188.503 56.4929 188.503C55.8622 188.503 55.2955 188.618 54.7926 188.848C54.2898 189.078 53.8594 189.419 53.5014 189.871C53.152 190.314 52.8793 190.864 52.6832 191.52C52.4957 192.168 52.402 192.909 52.402 193.744C52.402 195.423 52.7642 196.749 53.4886 197.72C54.2216 198.683 55.2315 199.165 56.5185 199.165ZM69.7085 210.364V183.364H75.0778V186.662H75.3207C75.5593 186.134 75.9045 185.597 76.3562 185.051C76.8164 184.497 77.413 184.037 78.146 183.67C78.8874 183.295 79.8079 183.108 80.9073 183.108C82.3391 183.108 83.6602 183.483 84.8704 184.233C86.0806 184.974 87.0479 186.095 87.7724 187.595C88.4968 189.087 88.859 190.957 88.859 193.207C88.859 195.398 88.5053 197.247 87.7979 198.756C87.0991 200.256 86.1445 201.393 84.9343 202.169C83.7326 202.936 82.386 203.32 80.8945 203.32C79.8377 203.32 78.9386 203.145 78.1971 202.795C77.4641 202.446 76.8633 202.007 76.3945 201.479C75.9258 200.942 75.5678 200.401 75.3207 199.855H75.1545V210.364H69.7085ZM75.0394 193.182C75.0394 194.349 75.2013 195.368 75.5252 196.237C75.8491 197.107 76.3178 197.784 76.9315 198.27C77.5451 198.747 78.2908 198.986 79.1687 198.986C80.055 198.986 80.805 198.743 81.4187 198.257C82.0323 197.763 82.4968 197.081 82.8121 196.212C83.136 195.334 83.2979 194.324 83.2979 193.182C83.2979 192.048 83.1403 191.051 82.8249 190.19C82.5096 189.33 82.0451 188.656 81.4315 188.17C80.8178 187.685 80.0636 187.442 79.1687 187.442C78.2823 187.442 77.5323 187.676 76.9187 188.145C76.3136 188.614 75.8491 189.278 75.5252 190.139C75.2013 191 75.0394 192.014 75.0394 193.182ZM98.0891 203.371C96.8363 203.371 95.7198 203.153 94.7397 202.719C93.7596 202.276 92.984 201.624 92.413 200.763C91.8505 199.893 91.5692 198.811 91.5692 197.516C91.5692 196.425 91.7695 195.509 92.1701 194.767C92.5707 194.026 93.1161 193.429 93.8065 192.977C94.4968 192.526 95.2809 192.185 96.1587 191.955C97.0451 191.724 97.9741 191.562 98.9457 191.469C100.088 191.349 101.008 191.239 101.707 191.136C102.406 191.026 102.913 190.864 103.228 190.651C103.544 190.437 103.701 190.122 103.701 189.705V189.628C103.701 188.818 103.446 188.192 102.934 187.749C102.431 187.305 101.716 187.084 100.787 187.084C99.8065 187.084 99.0266 187.301 98.4471 187.736C97.8675 188.162 97.484 188.699 97.2965 189.347L92.2596 188.938C92.5153 187.744 93.0181 186.713 93.7681 185.844C94.5181 184.966 95.4854 184.293 96.6701 183.824C97.8633 183.347 99.244 183.108 100.812 183.108C101.903 183.108 102.947 183.236 103.944 183.491C104.95 183.747 105.841 184.143 106.616 184.68C107.4 185.217 108.018 185.908 108.47 186.751C108.922 187.587 109.147 188.588 109.147 189.756V203H103.983V200.277H103.829C103.514 200.891 103.092 201.432 102.564 201.901C102.035 202.361 101.4 202.723 100.659 202.987C99.9173 203.243 99.0607 203.371 98.0891 203.371ZM99.6488 199.612C100.45 199.612 101.157 199.455 101.771 199.139C102.385 198.815 102.866 198.381 103.216 197.835C103.565 197.29 103.74 196.672 103.74 195.982V193.898C103.569 194.009 103.335 194.111 103.037 194.205C102.747 194.29 102.419 194.371 102.052 194.447C101.686 194.516 101.319 194.58 100.953 194.639C100.586 194.69 100.254 194.737 99.9556 194.78C99.3164 194.874 98.7582 195.023 98.2809 195.227C97.8036 195.432 97.4329 195.709 97.1687 196.058C96.9045 196.399 96.7724 196.825 96.7724 197.337C96.7724 198.078 97.0408 198.645 97.5778 199.037C98.1232 199.42 98.8136 199.612 99.6488 199.612ZM127.039 191.009V195.291H116.786V191.009H127.039ZM118.576 183.364V203H113.373V183.364H118.576ZM130.452 183.364V203H125.287V183.364H130.452ZM143.549 203.384C141.564 203.384 139.846 202.962 138.397 202.118C136.957 201.266 135.845 200.081 135.061 198.564C134.277 197.038 133.885 195.27 133.885 193.259C133.885 191.23 134.277 189.457 135.061 187.94C135.845 186.415 136.957 185.23 138.397 184.386C139.846 183.534 141.564 183.108 143.549 183.108C145.535 183.108 147.248 183.534 148.689 184.386C150.137 185.23 151.254 186.415 152.038 187.94C152.822 189.457 153.214 191.23 153.214 193.259C153.214 195.27 152.822 197.038 152.038 198.564C151.254 200.081 150.137 201.266 148.689 202.118C147.248 202.962 145.535 203.384 143.549 203.384ZM143.575 199.165C144.478 199.165 145.233 198.909 145.838 198.398C146.443 197.878 146.899 197.17 147.206 196.276C147.521 195.381 147.679 194.362 147.679 193.22C147.679 192.078 147.521 191.06 147.206 190.165C146.899 189.27 146.443 188.562 145.838 188.043C145.233 187.523 144.478 187.263 143.575 187.263C142.663 187.263 141.896 187.523 141.274 188.043C140.66 188.562 140.196 189.27 139.88 190.165C139.574 191.06 139.42 192.078 139.42 193.22C139.42 194.362 139.574 195.381 139.88 196.276C140.196 197.17 140.66 197.878 141.274 198.398C141.896 198.909 142.663 199.165 143.575 199.165ZM165.704 203.384C163.684 203.384 161.946 202.974 160.488 202.156C159.039 201.33 157.923 200.162 157.139 198.653C156.355 197.136 155.963 195.342 155.963 193.271C155.963 191.251 156.355 189.479 157.139 187.953C157.923 186.428 159.027 185.239 160.45 184.386C161.882 183.534 163.561 183.108 165.487 183.108C166.782 183.108 167.988 183.317 169.105 183.734C170.23 184.143 171.21 184.761 172.045 185.588C172.889 186.415 173.545 187.455 174.014 188.707C174.483 189.952 174.717 191.409 174.717 193.08V194.575H158.136V191.2H169.591C169.591 190.416 169.42 189.722 169.079 189.116C168.738 188.511 168.265 188.038 167.66 187.697C167.064 187.348 166.369 187.173 165.576 187.173C164.75 187.173 164.017 187.365 163.377 187.749C162.747 188.124 162.252 188.631 161.895 189.27C161.537 189.901 161.353 190.604 161.345 191.379V194.588C161.345 195.56 161.524 196.399 161.882 197.107C162.248 197.814 162.764 198.359 163.429 198.743C164.093 199.126 164.882 199.318 165.794 199.318C166.399 199.318 166.953 199.233 167.456 199.062C167.958 198.892 168.389 198.636 168.747 198.295C169.105 197.955 169.377 197.537 169.565 197.043L174.602 197.375C174.346 198.585 173.822 199.642 173.029 200.545C172.245 201.44 171.231 202.139 169.987 202.642C168.751 203.136 167.324 203.384 165.704 203.384Z" fill="white"/>
</svg>
