<svg width="261" height="299" viewBox="0 0 261 299" fill="none" xmlns="http://www.w3.org/2000/svg">
<path d="M25.3764 9.98438H19.777C19.6747 9.25994 19.4659 8.61648 19.1506 8.05398C18.8352 7.48295 18.4304 6.99716 17.9361 6.59659C17.4418 6.19602 16.8707 5.8892 16.223 5.67614C15.5838 5.46307 14.8892 5.35653 14.1392 5.35653C12.7841 5.35653 11.6037 5.69318 10.598 6.36648C9.59233 7.03125 8.8125 8.00284 8.25852 9.28125C7.70455 10.5511 7.42756 12.0937 7.42756 13.9091C7.42756 15.7756 7.70455 17.3437 8.25852 18.6136C8.82102 19.8835 9.60511 20.8423 10.6108 21.4901C11.6165 22.1378 12.7798 22.4616 14.1009 22.4616C14.8423 22.4616 15.5284 22.3636 16.1591 22.1676C16.7983 21.9716 17.3651 21.6861 17.8594 21.3111C18.3537 20.9276 18.7628 20.4631 19.0866 19.9176C19.419 19.3722 19.6491 18.75 19.777 18.0511L25.3764 18.0767C25.2315 19.2784 24.8693 20.4375 24.2898 21.554C23.7188 22.6619 22.9474 23.6548 21.9759 24.5327C21.0128 25.402 19.8622 26.0923 18.5241 26.6037C17.1946 27.1065 15.6903 27.358 14.0114 27.358C11.6761 27.358 9.58807 26.8295 7.74716 25.7727C5.91477 24.7159 4.46591 23.1861 3.40057 21.1832C2.34375 19.1804 1.81534 16.7557 1.81534 13.9091C1.81534 11.054 2.35227 8.625 3.42614 6.62216C4.5 4.61932 5.95739 3.09375 7.7983 2.04545C9.6392 0.988636 11.7102 0.460226 14.0114 0.460226C15.5284 0.460226 16.9347 0.673295 18.2301 1.09943C19.5341 1.52557 20.6889 2.14773 21.6946 2.96591C22.7003 3.77557 23.5185 4.76846 24.1491 5.9446C24.7884 7.12074 25.1974 8.46733 25.3764 9.98438ZM38.1925 27.3835C36.1726 27.3835 34.4339 26.9744 32.9766 26.1562C31.5277 25.3295 30.4112 24.1619 29.6271 22.6534C28.843 21.1364 28.451 19.3423 28.451 17.2713C28.451 15.2514 28.843 13.4787 29.6271 11.9531C30.4112 10.4276 31.5149 9.23864 32.9382 8.38636C34.37 7.53409 36.049 7.10795 37.9751 7.10795C39.2706 7.10795 40.4766 7.31676 41.593 7.73438C42.718 8.14347 43.6982 8.76136 44.5334 9.58807C45.3771 10.4148 46.0334 11.4545 46.5021 12.7074C46.9709 13.9517 47.2053 15.4091 47.2053 17.0795V18.5753H30.6243V15.2003H42.0788C42.0788 14.4162 41.9084 13.7216 41.5675 13.1165C41.2266 12.5114 40.7536 12.0384 40.1484 11.6974C39.5518 11.348 38.8572 11.1733 38.0646 11.1733C37.2379 11.1733 36.505 11.3651 35.8658 11.7486C35.2351 12.1236 34.7408 12.6307 34.3828 13.2699C34.0249 13.9006 33.8416 14.6037 33.8331 15.3793V18.5881C33.8331 19.5597 34.0121 20.3991 34.37 21.1065C34.7365 21.8139 35.2521 22.3594 35.9169 22.7429C36.5817 23.1264 37.37 23.3182 38.282 23.3182C38.8871 23.3182 39.4411 23.233 39.9439 23.0625C40.4467 22.892 40.8771 22.6364 41.2351 22.2955C41.593 21.9545 41.8658 21.5369 42.0533 21.0426L47.0902 21.375C46.8345 22.5852 46.3104 23.642 45.5178 24.5455C44.7337 25.4403 43.7195 26.1392 42.4751 26.642C41.2393 27.1364 39.8118 27.3835 38.1925 27.3835ZM50.7592 34.3636V7.36364H56.1286V10.6619H56.3714C56.6101 10.1335 56.9553 9.59659 57.407 9.05114C57.8672 8.49716 58.4638 8.03693 59.1967 7.67045C59.9382 7.29545 60.8587 7.10795 61.9581 7.10795C63.3899 7.10795 64.7109 7.48295 65.9212 8.23295C67.1314 8.97443 68.0987 10.0952 68.8232 11.5952C69.5476 13.0866 69.9098 14.9574 69.9098 17.2074C69.9098 19.3977 69.5561 21.2472 68.8487 22.7557C68.1499 24.2557 67.1953 25.3935 65.9851 26.169C64.7834 26.9361 63.4368 27.3196 61.9453 27.3196C60.8885 27.3196 59.9893 27.1449 59.2479 26.7955C58.5149 26.446 57.9141 26.0071 57.4453 25.4787C56.9766 24.9418 56.6186 24.4006 56.3714 23.8551H56.2053V34.3636H50.7592ZM56.0902 17.1818C56.0902 18.3494 56.2521 19.3679 56.576 20.2372C56.8999 21.1065 57.3686 21.7841 57.9822 22.2699C58.5959 22.7472 59.3416 22.9858 60.2195 22.9858C61.1058 22.9858 61.8558 22.7429 62.4695 22.2571C63.0831 21.7628 63.5476 21.081 63.8629 20.2116C64.1868 19.3338 64.3487 18.3239 64.3487 17.1818C64.3487 16.0483 64.1911 15.0511 63.8757 14.1903C63.5604 13.3295 63.0959 12.6562 62.4822 12.1705C61.8686 11.6847 61.1143 11.4418 60.2195 11.4418C59.3331 11.4418 58.5831 11.6761 57.9695 12.1449C57.3643 12.6136 56.8999 13.2784 56.576 14.1392C56.2521 15 56.0902 16.0142 56.0902 17.1818ZM73.5405 27V7.36364H81.9141C84.3345 7.36364 86.2479 7.82386 87.6541 8.74432C89.0604 9.66477 89.7635 10.973 89.7635 12.669C89.7635 13.7344 89.3672 14.6207 88.5746 15.3281C87.782 16.0355 86.6825 16.5128 85.2763 16.7599C86.4524 16.8452 87.4538 17.1136 88.2805 17.5653C89.1158 18.0085 89.7507 18.5838 90.1854 19.2912C90.6286 19.9986 90.8501 20.7827 90.8501 21.6435C90.8501 22.7599 90.5518 23.7187 89.9553 24.5199C89.3672 25.321 88.5021 25.9347 87.3601 26.3608C86.2266 26.7869 84.8416 27 83.2053 27H73.5405ZM78.6158 22.9219H83.2053C83.9638 22.9219 84.5561 22.7429 84.9822 22.3849C85.4169 22.0185 85.6342 21.5199 85.6342 20.8892C85.6342 20.1903 85.4169 19.6406 84.9822 19.2401C84.5561 18.8395 83.9638 18.6392 83.2053 18.6392H78.6158V22.9219ZM78.6158 15.4432H82.0291C82.5746 15.4432 83.0391 15.3665 83.4226 15.2131C83.8146 15.0511 84.1129 14.821 84.3175 14.5227C84.5305 14.2244 84.6371 13.8707 84.6371 13.4616C84.6371 12.8565 84.3942 12.3835 83.9084 12.0426C83.4226 11.7017 82.7578 11.5312 81.9141 11.5312H78.6158V15.4432ZM99.4858 19.8153L106.555 7.36364H111.925V27H106.734V14.5099L99.6903 27H94.2827V7.36364H99.4858V19.8153ZM125.163 27.3835C123.151 27.3835 121.421 26.9574 119.972 26.1051C118.532 25.2443 117.424 24.0511 116.648 22.5256C115.881 21 115.498 19.2443 115.498 17.2585C115.498 15.2472 115.886 13.483 116.661 11.9659C117.445 10.4403 118.558 9.25142 119.998 8.39915C121.438 7.53835 123.151 7.10795 125.137 7.10795C126.85 7.10795 128.35 7.41903 129.637 8.04119C130.924 8.66335 131.942 9.53693 132.692 10.6619C133.442 11.7869 133.856 13.108 133.933 14.625H128.793C128.648 13.6449 128.265 12.8565 127.643 12.2599C127.029 11.6548 126.224 11.3523 125.227 11.3523C124.383 11.3523 123.646 11.5824 123.015 12.0426C122.393 12.4943 121.907 13.1548 121.558 14.0241C121.208 14.8935 121.033 15.946 121.033 17.1818C121.033 18.4347 121.204 19.5 121.545 20.3778C121.894 21.2557 122.384 21.9247 123.015 22.3849C123.646 22.8452 124.383 23.0753 125.227 23.0753C125.849 23.0753 126.407 22.9474 126.901 22.6918C127.404 22.4361 127.817 22.0653 128.141 21.5795C128.474 21.0852 128.691 20.4929 128.793 19.8026H133.933C133.847 21.3026 133.438 22.6236 132.705 23.7656C131.981 24.8991 130.979 25.7855 129.701 26.4247C128.423 27.0639 126.91 27.3835 125.163 27.3835ZM0.856534 121.315V110.589H2.63352C3.23864 110.155 3.79261 109.541 4.29545 108.749C4.7983 107.947 5.22869 106.844 5.58665 105.438C5.9446 104.023 6.20028 102.173 6.35369 99.8892L7.09517 88.8182H24.4176V110.589H27.2812V121.29H21.9631V115H6.17472V121.315H0.856534ZM9.02557 110.589H19.0994V93.3821H12.081L11.6719 99.8892C11.5611 101.619 11.3778 103.153 11.1222 104.491C10.875 105.83 10.5724 107.001 10.2145 108.007C9.86506 109.004 9.46875 109.865 9.02557 110.589ZM39.4165 115.384C37.4308 115.384 35.7134 114.962 34.2646 114.118C32.8242 113.266 31.712 112.081 30.9279 110.564C30.1438 109.038 29.7518 107.27 29.7518 105.259C29.7518 103.23 30.1438 101.457 30.9279 99.9403C31.712 98.4148 32.8242 97.2301 34.2646 96.3864C35.7134 95.5341 37.4308 95.108 39.4165 95.108C41.4023 95.108 43.1154 95.5341 44.5558 96.3864C46.0046 97.2301 47.1211 98.4148 47.9052 99.9403C48.6893 101.457 49.0813 103.23 49.0813 105.259C49.0813 107.27 48.6893 109.038 47.9052 110.564C47.1211 112.081 46.0046 113.266 44.5558 114.118C43.1154 114.962 41.4023 115.384 39.4165 115.384ZM39.4421 111.165C40.3455 111.165 41.0998 110.909 41.7049 110.398C42.31 109.878 42.766 109.17 43.0728 108.276C43.3881 107.381 43.5458 106.362 43.5458 105.22C43.5458 104.078 43.3881 103.06 43.0728 102.165C42.766 101.27 42.31 100.562 41.7049 100.043C41.0998 99.5227 40.3455 99.2628 39.4421 99.2628C38.5302 99.2628 37.7631 99.5227 37.141 100.043C36.5273 100.562 36.0629 101.27 35.7475 102.165C35.4407 103.06 35.2873 104.078 35.2873 105.22C35.2873 106.362 35.4407 107.381 35.7475 108.276C36.0629 109.17 36.5273 109.878 37.141 110.398C37.7631 110.909 38.5302 111.165 39.4421 111.165ZM61.4947 115.384C59.4833 115.384 57.7532 114.957 56.3043 114.105C54.864 113.244 53.756 112.051 52.9805 110.526C52.2134 109 51.8299 107.244 51.8299 105.259C51.8299 103.247 52.2177 101.483 52.9933 99.9659C53.7773 98.4403 54.8896 97.2514 56.3299 96.3991C57.7702 95.5384 59.4833 95.108 61.4691 95.108C63.1822 95.108 64.6822 95.419 65.9691 96.0412C67.256 96.6634 68.2745 97.5369 69.0245 98.6619C69.7745 99.7869 70.1879 101.108 70.2646 102.625H65.1254C64.9805 101.645 64.5969 100.857 63.9748 100.26C63.3612 99.6548 62.5558 99.3523 61.5586 99.3523C60.7148 99.3523 59.9776 99.5824 59.3469 100.043C58.7248 100.494 58.239 101.155 57.8896 102.024C57.5401 102.893 57.3654 103.946 57.3654 105.182C57.3654 106.435 57.5359 107.5 57.8768 108.378C58.2262 109.256 58.7163 109.925 59.3469 110.385C59.9776 110.845 60.7148 111.075 61.5586 111.075C62.1808 111.075 62.739 110.947 63.2333 110.692C63.7362 110.436 64.1495 110.065 64.4734 109.58C64.8058 109.085 65.0231 108.493 65.1254 107.803H70.2646C70.1793 109.303 69.7702 110.624 69.0373 111.766C68.3129 112.899 67.3114 113.786 66.033 114.425C64.7546 115.064 63.2418 115.384 61.4947 115.384ZM72.4123 99.6463V95.3636H90.2077V99.6463H83.8796V115H78.6893V99.6463H72.4123ZM98.4055 115.371C97.1527 115.371 96.0362 115.153 95.0561 114.719C94.076 114.276 93.3004 113.624 92.7294 112.763C92.1669 111.893 91.8857 110.811 91.8857 109.516C91.8857 108.425 92.0859 107.509 92.4865 106.767C92.8871 106.026 93.4325 105.429 94.1229 104.977C94.8132 104.526 95.5973 104.185 96.4751 103.955C97.3615 103.724 98.2905 103.562 99.2621 103.469C100.404 103.349 101.325 103.239 102.023 103.136C102.722 103.026 103.229 102.864 103.545 102.651C103.86 102.437 104.018 102.122 104.018 101.705V101.628C104.018 100.818 103.762 100.192 103.251 99.7486C102.748 99.3054 102.032 99.0838 101.103 99.0838C100.123 99.0838 99.343 99.3011 98.7635 99.7358C98.1839 100.162 97.8004 100.699 97.6129 101.347L92.576 100.938C92.8317 99.7443 93.3345 98.7131 94.0845 97.8438C94.8345 96.9659 95.8018 96.2926 96.9865 95.8239C98.1797 95.3466 99.5604 95.108 101.129 95.108C102.219 95.108 103.263 95.2358 104.261 95.4915C105.266 95.7472 106.157 96.1435 106.933 96.6804C107.717 97.2173 108.335 97.9077 108.786 98.7514C109.238 99.5866 109.464 100.588 109.464 101.756V115H104.299V112.277H104.146C103.83 112.891 103.408 113.432 102.88 113.901C102.352 114.361 101.717 114.723 100.975 114.987C100.234 115.243 99.3771 115.371 98.4055 115.371ZM99.9652 111.612C100.766 111.612 101.474 111.455 102.087 111.139C102.701 110.815 103.183 110.381 103.532 109.835C103.881 109.29 104.056 108.672 104.056 107.982V105.898C103.886 106.009 103.651 106.111 103.353 106.205C103.063 106.29 102.735 106.371 102.369 106.447C102.002 106.516 101.636 106.58 101.269 106.639C100.903 106.69 100.57 106.737 100.272 106.78C99.6328 106.874 99.0746 107.023 98.5973 107.227C98.12 107.432 97.7493 107.709 97.4851 108.058C97.2209 108.399 97.0888 108.825 97.0888 109.337C97.0888 110.078 97.3572 110.645 97.8942 111.037C98.4396 111.42 99.13 111.612 99.9652 111.612ZM113.689 115V95.3636H122.062C124.483 95.3636 126.396 95.8239 127.803 96.7443C129.209 97.6648 129.912 98.973 129.912 100.669C129.912 101.734 129.516 102.621 128.723 103.328C127.93 104.036 126.831 104.513 125.425 104.76C126.601 104.845 127.602 105.114 128.429 105.565C129.264 106.009 129.899 106.584 130.334 107.291C130.777 107.999 130.999 108.783 130.999 109.643C130.999 110.76 130.7 111.719 130.104 112.52C129.516 113.321 128.651 113.935 127.509 114.361C126.375 114.787 124.99 115 123.354 115H113.689ZM118.764 110.922H123.354C124.112 110.922 124.705 110.743 125.131 110.385C125.565 110.018 125.783 109.52 125.783 108.889C125.783 108.19 125.565 107.641 125.131 107.24C124.705 106.839 124.112 106.639 123.354 106.639H118.764V110.922ZM118.764 103.443H122.178C122.723 103.443 123.188 103.366 123.571 103.213C123.963 103.051 124.261 102.821 124.466 102.523C124.679 102.224 124.786 101.871 124.786 101.462C124.786 100.857 124.543 100.384 124.057 100.043C123.571 99.7017 122.906 99.5312 122.062 99.5312H118.764V103.443ZM134.431 115V95.3636H139.877V102.983H141.411L146.755 95.3636H153.147L146.205 105.105L153.224 115H146.755L141.91 108.033H139.877V115H134.431ZM161.124 115.371C159.871 115.371 158.755 115.153 157.775 114.719C156.795 114.276 156.019 113.624 155.448 112.763C154.886 111.893 154.604 110.811 154.604 109.516C154.604 108.425 154.805 107.509 155.205 106.767C155.606 106.026 156.151 105.429 156.842 104.977C157.532 104.526 158.316 104.185 159.194 103.955C160.08 103.724 161.009 103.562 161.981 103.469C163.123 103.349 164.043 103.239 164.742 103.136C165.441 103.026 165.948 102.864 166.263 102.651C166.579 102.437 166.737 102.122 166.737 101.705V101.628C166.737 100.818 166.481 100.192 165.969 99.7486C165.467 99.3054 164.751 99.0838 163.822 99.0838C162.842 99.0838 162.062 99.3011 161.482 99.7358C160.903 100.162 160.519 100.699 160.332 101.347L155.295 100.938C155.55 99.7443 156.053 98.7131 156.803 97.8438C157.553 96.9659 158.521 96.2926 159.705 95.8239C160.898 95.3466 162.279 95.108 163.847 95.108C164.938 95.108 165.982 95.2358 166.979 95.4915C167.985 95.7472 168.876 96.1435 169.651 96.6804C170.435 97.2173 171.053 97.9077 171.505 98.7514C171.957 99.5866 172.183 100.588 172.183 101.756V115H167.018V112.277H166.864C166.549 112.891 166.127 113.432 165.599 113.901C165.07 114.361 164.435 114.723 163.694 114.987C162.952 115.243 162.096 115.371 161.124 115.371ZM162.684 111.612C163.485 111.612 164.192 111.455 164.806 111.139C165.42 110.815 165.901 110.381 166.251 109.835C166.6 109.29 166.775 108.672 166.775 107.982V105.898C166.604 106.009 166.37 106.111 166.072 106.205C165.782 106.29 165.454 106.371 165.087 106.447C164.721 106.516 164.354 106.58 163.988 106.639C163.621 106.69 163.289 106.737 162.991 106.78C162.352 106.874 161.793 107.023 161.316 107.227C160.839 107.432 160.468 107.709 160.204 108.058C159.94 108.399 159.808 108.825 159.808 109.337C159.808 110.078 160.076 110.645 160.613 111.037C161.158 111.42 161.849 111.612 162.684 111.612ZM26.3352 189.909C26.3352 192.764 25.794 195.193 24.7116 197.196C23.6378 199.199 22.1719 200.729 20.3139 201.786C18.4645 202.834 16.3849 203.358 14.0753 203.358C11.7486 203.358 9.66051 202.83 7.81108 201.773C5.96165 200.716 4.5 199.186 3.42614 197.183C2.35227 195.18 1.81534 192.756 1.81534 189.909C1.81534 187.054 2.35227 184.625 3.42614 182.622C4.5 180.619 5.96165 179.094 7.81108 178.045C9.66051 176.989 11.7486 176.46 14.0753 176.46C16.3849 176.46 18.4645 176.989 20.3139 178.045C22.1719 179.094 23.6378 180.619 24.7116 182.622C25.794 184.625 26.3352 187.054 26.3352 189.909ZM20.723 189.909C20.723 188.06 20.446 186.5 19.892 185.23C19.3466 183.96 18.5753 182.997 17.5781 182.341C16.581 181.685 15.4134 181.357 14.0753 181.357C12.7372 181.357 11.5696 181.685 10.5724 182.341C9.57528 182.997 8.79972 183.96 8.24574 185.23C7.70028 186.5 7.42756 188.06 7.42756 189.909C7.42756 191.759 7.70028 193.318 8.24574 194.588C8.79972 195.858 9.57528 196.821 10.5724 197.477C11.5696 198.134 12.7372 198.462 14.0753 198.462C15.4134 198.462 16.581 198.134 17.5781 197.477C18.5753 196.821 19.3466 195.858 19.892 194.588C20.446 193.318 20.723 191.759 20.723 189.909ZM30.3335 203V183.364H47.5025V203H42.2994V187.646H35.4727V203H30.3335ZM50.6985 203L50.6729 198.679H51.3249C51.7852 198.679 52.1815 198.568 52.5138 198.347C52.8548 198.116 53.136 197.746 53.3576 197.234C53.5792 196.723 53.7539 196.045 53.8817 195.202C54.0096 194.349 54.0948 193.301 54.1374 192.057L54.457 183.364H69.3889V203H64.1985V187.646H59.3533L59.0465 193.642C58.9698 195.287 58.7695 196.702 58.4457 197.886C58.1303 199.071 57.6914 200.043 57.1289 200.801C56.5664 201.551 55.8888 202.105 55.0962 202.463C54.3036 202.821 53.3832 203 52.3349 203H50.6985ZM79.2102 203.371C77.9574 203.371 76.8409 203.153 75.8608 202.719C74.8807 202.276 74.1051 201.624 73.5341 200.763C72.9716 199.893 72.6903 198.811 72.6903 197.516C72.6903 196.425 72.8906 195.509 73.2912 194.767C73.6918 194.026 74.2372 193.429 74.9276 192.977C75.6179 192.526 76.402 192.185 77.2798 191.955C78.1662 191.724 79.0952 191.562 80.0668 191.469C81.2088 191.349 82.1293 191.239 82.8281 191.136C83.527 191.026 84.0341 190.864 84.3494 190.651C84.6648 190.437 84.8224 190.122 84.8224 189.705V189.628C84.8224 188.818 84.5668 188.192 84.0554 187.749C83.5526 187.305 82.8366 187.084 81.9077 187.084C80.9276 187.084 80.1477 187.301 79.5682 187.736C78.9886 188.162 78.6051 188.699 78.4176 189.347L73.3807 188.938C73.6364 187.744 74.1392 186.713 74.8892 185.844C75.6392 184.966 76.6065 184.293 77.7912 183.824C78.9844 183.347 80.3651 183.108 81.9332 183.108C83.0241 183.108 84.0682 183.236 85.0653 183.491C86.071 183.747 86.9616 184.143 87.7372 184.68C88.5213 185.217 89.1392 185.908 89.5909 186.751C90.0426 187.587 90.2685 188.588 90.2685 189.756V203H85.1037V200.277H84.9503C84.6349 200.891 84.2131 201.432 83.6847 201.901C83.1562 202.361 82.5213 202.723 81.7798 202.987C81.0384 203.243 80.1818 203.371 79.2102 203.371ZM80.7699 199.612C81.571 199.612 82.2784 199.455 82.892 199.139C83.5057 198.815 83.9872 198.381 84.3366 197.835C84.6861 197.29 84.8608 196.672 84.8608 195.982V193.898C84.6903 194.009 84.456 194.111 84.1577 194.205C83.8679 194.29 83.5398 194.371 83.1733 194.447C82.8068 194.516 82.4403 194.58 82.0739 194.639C81.7074 194.69 81.375 194.737 81.0767 194.78C80.4375 194.874 79.8793 195.023 79.402 195.227C78.9247 195.432 78.554 195.709 78.2898 196.058C78.0256 196.399 77.8935 196.825 77.8935 197.337C77.8935 198.078 78.1619 198.645 78.6989 199.037C79.2443 199.42 79.9347 199.612 80.7699 199.612ZM92.5217 187.646V183.364H110.317V187.646H103.989V203H98.7987V187.646H92.5217ZM118.515 203.371C117.262 203.371 116.146 203.153 115.165 202.719C114.185 202.276 113.41 201.624 112.839 200.763C112.276 199.893 111.995 198.811 111.995 197.516C111.995 196.425 112.195 195.509 112.596 194.767C112.996 194.026 113.542 193.429 114.232 192.977C114.923 192.526 115.707 192.185 116.585 191.955C117.471 191.724 118.4 191.562 119.371 191.469C120.513 191.349 121.434 191.239 122.133 191.136C122.832 191.026 123.339 190.864 123.654 190.651C123.969 190.437 124.127 190.122 124.127 189.705V189.628C124.127 188.818 123.871 188.192 123.36 187.749C122.857 187.305 122.141 187.084 121.212 187.084C120.232 187.084 119.452 187.301 118.873 187.736C118.293 188.162 117.91 188.699 117.722 189.347L112.685 188.938C112.941 187.744 113.444 186.713 114.194 185.844C114.944 184.966 115.911 184.293 117.096 183.824C118.289 183.347 119.67 183.108 121.238 183.108C122.329 183.108 123.373 183.236 124.37 183.491C125.376 183.747 126.266 184.143 127.042 184.68C127.826 185.217 128.444 185.908 128.896 186.751C129.347 187.587 129.573 188.588 129.573 189.756V203H124.408V200.277H124.255C123.94 200.891 123.518 201.432 122.989 201.901C122.461 202.361 121.826 202.723 121.085 202.987C120.343 203.243 119.487 203.371 118.515 203.371ZM120.075 199.612C120.876 199.612 121.583 199.455 122.197 199.139C122.81 198.815 123.292 198.381 123.641 197.835C123.991 197.29 124.165 196.672 124.165 195.982V193.898C123.995 194.009 123.761 194.111 123.462 194.205C123.173 194.29 122.844 194.371 122.478 194.447C122.112 194.516 121.745 194.58 121.379 194.639C121.012 194.69 120.68 194.737 120.381 194.78C119.742 194.874 119.184 195.023 118.707 195.227C118.229 195.432 117.859 195.709 117.594 196.058C117.33 196.399 117.198 196.825 117.198 197.337C117.198 198.078 117.467 198.645 118.004 199.037C118.549 199.42 119.239 199.612 120.075 199.612ZM2.27557 291V264.818H12.7585C14.6847 264.818 16.2912 265.104 17.5781 265.675C18.8651 266.246 19.8324 267.038 20.4801 268.053C21.1278 269.058 21.4517 270.217 21.4517 271.53C21.4517 272.553 21.2472 273.452 20.8381 274.227C20.429 274.994 19.8665 275.625 19.1506 276.119C18.4432 276.605 17.6335 276.95 16.7216 277.155V277.411C17.7188 277.453 18.652 277.734 19.5213 278.254C20.3991 278.774 21.1108 279.503 21.6562 280.44C22.2017 281.369 22.4744 282.477 22.4744 283.764C22.4744 285.153 22.1293 286.393 21.4389 287.484C20.7571 288.567 19.7472 289.423 18.4091 290.054C17.071 290.685 15.4219 291 13.4616 291H2.27557ZM7.81108 286.474H12.3239C13.8665 286.474 14.9915 286.18 15.6989 285.592C16.4063 284.996 16.7599 284.203 16.7599 283.214C16.7599 282.49 16.5852 281.851 16.2358 281.297C15.8864 280.743 15.3878 280.308 14.7401 279.993C14.1009 279.678 13.3381 279.52 12.4517 279.52H7.81108V286.474ZM7.81108 275.774H11.9148C12.6733 275.774 13.3466 275.642 13.9347 275.378C14.5313 275.105 15 274.722 15.3409 274.227C15.6903 273.733 15.8651 273.141 15.8651 272.45C15.8651 271.504 15.5284 270.741 14.8551 270.162C14.1903 269.582 13.2443 269.293 12.017 269.293H7.81108V275.774ZM34.8462 291.384C32.8604 291.384 31.1431 290.962 29.6942 290.118C28.2539 289.266 27.1417 288.081 26.3576 286.564C25.5735 285.038 25.1815 283.27 25.1815 281.259C25.1815 279.23 25.5735 277.457 26.3576 275.94C27.1417 274.415 28.2539 273.23 29.6942 272.386C31.1431 271.534 32.8604 271.108 34.8462 271.108C36.832 271.108 38.5451 271.534 39.9854 272.386C41.4343 273.23 42.5508 274.415 43.3349 275.94C44.119 277.457 44.511 279.23 44.511 281.259C44.511 283.27 44.119 285.038 43.3349 286.564C42.5508 288.081 41.4343 289.266 39.9854 290.118C38.5451 290.962 36.832 291.384 34.8462 291.384ZM34.8718 287.165C35.7752 287.165 36.5295 286.909 37.1346 286.398C37.7397 285.878 38.1957 285.17 38.5025 284.276C38.8178 283.381 38.9755 282.362 38.9755 281.22C38.9755 280.078 38.8178 279.06 38.5025 278.165C38.1957 277.27 37.7397 276.562 37.1346 276.043C36.5295 275.523 35.7752 275.263 34.8718 275.263C33.9599 275.263 33.1928 275.523 32.5707 276.043C31.957 276.562 31.4925 277.27 31.1772 278.165C30.8704 279.06 30.717 280.078 30.717 281.22C30.717 282.362 30.8704 283.381 31.1772 284.276C31.4925 285.17 31.957 285.878 32.5707 286.398C33.1928 286.909 33.9599 287.165 34.8718 287.165ZM47.0423 285.439H52.3221C52.3477 286.087 52.6374 286.598 53.1914 286.973C53.7454 287.348 54.4613 287.536 55.3391 287.536C56.2255 287.536 56.9712 287.331 57.5764 286.922C58.1815 286.504 58.484 285.908 58.484 285.132C58.484 284.655 58.3647 284.241 58.1261 283.892C57.8874 283.534 57.555 283.253 57.1289 283.048C56.7028 282.844 56.2085 282.741 55.646 282.741H52.8207V279.175H55.646C56.4897 279.175 57.1374 278.979 57.5891 278.587C58.0494 278.195 58.2795 277.705 58.2795 277.116C58.2795 276.452 58.0408 275.919 57.5636 275.518C57.0948 275.109 56.4599 274.905 55.6587 274.905C54.8491 274.905 54.1758 275.088 53.6388 275.455C53.1104 275.812 52.8377 276.281 52.8207 276.861H47.5664C47.5835 275.685 47.9371 274.666 48.6275 273.805C49.3263 272.945 50.2638 272.28 51.44 271.811C52.6246 271.342 53.9499 271.108 55.4158 271.108C57.0181 271.108 58.3988 271.334 59.5579 271.786C60.7255 272.229 61.6204 272.864 62.2425 273.69C62.8732 274.517 63.1886 275.501 63.1886 276.643C63.1886 277.683 62.8477 278.553 62.1658 279.251C61.484 279.95 60.5295 280.449 59.3022 280.747V280.952C60.1119 281.003 60.8448 281.22 61.5011 281.604C62.1573 281.987 62.6815 282.516 63.0735 283.189C63.4656 283.854 63.6616 284.642 63.6616 285.554C63.6616 286.773 63.3036 287.817 62.5877 288.686C61.8803 289.555 60.9002 290.224 59.6474 290.693C58.4031 291.153 56.9755 291.384 55.3647 291.384C53.7965 291.384 52.3903 291.158 51.146 290.706C49.9102 290.246 48.9258 289.572 48.1928 288.686C47.4684 287.8 47.0849 286.717 47.0423 285.439ZM67.0014 298.364V271.364H72.3707V274.662H72.6136C72.8523 274.134 73.1974 273.597 73.6491 273.051C74.1094 272.497 74.706 272.037 75.4389 271.67C76.1804 271.295 77.1009 271.108 78.2003 271.108C79.6321 271.108 80.9531 271.483 82.1634 272.233C83.3736 272.974 84.3409 274.095 85.0653 275.595C85.7898 277.087 86.152 278.957 86.152 281.207C86.152 283.398 85.7983 285.247 85.0909 286.756C84.392 288.256 83.4375 289.393 82.2273 290.169C81.0256 290.936 79.679 291.32 78.1875 291.32C77.1307 291.32 76.2315 291.145 75.4901 290.795C74.7571 290.446 74.1562 290.007 73.6875 289.479C73.2188 288.942 72.8608 288.401 72.6136 287.855H72.4474V298.364H67.0014ZM72.3324 281.182C72.3324 282.349 72.4943 283.368 72.8182 284.237C73.142 285.107 73.6108 285.784 74.2244 286.27C74.8381 286.747 75.5838 286.986 76.4616 286.986C77.348 286.986 78.098 286.743 78.7116 286.257C79.3253 285.763 79.7898 285.081 80.1051 284.212C80.429 283.334 80.5909 282.324 80.5909 281.182C80.5909 280.048 80.4332 279.051 80.1179 278.19C79.8026 277.33 79.3381 276.656 78.7244 276.17C78.1108 275.685 77.3565 275.442 76.4616 275.442C75.5753 275.442 74.8253 275.676 74.2116 276.145C73.6065 276.614 73.142 277.278 72.8182 278.139C72.4943 279 72.3324 280.014 72.3324 281.182ZM95.3821 291.371C94.1293 291.371 93.0128 291.153 92.0327 290.719C91.0526 290.276 90.277 289.624 89.706 288.763C89.1435 287.893 88.8622 286.811 88.8622 285.516C88.8622 284.425 89.0625 283.509 89.4631 282.767C89.8636 282.026 90.4091 281.429 91.0994 280.977C91.7898 280.526 92.5739 280.185 93.4517 279.955C94.3381 279.724 95.267 279.562 96.2386 279.469C97.3807 279.349 98.3011 279.239 99 279.136C99.6989 279.026 100.206 278.864 100.521 278.651C100.837 278.437 100.994 278.122 100.994 277.705V277.628C100.994 276.818 100.739 276.192 100.227 275.749C99.7244 275.305 99.0085 275.084 98.0795 275.084C97.0994 275.084 96.3196 275.301 95.7401 275.736C95.1605 276.162 94.777 276.699 94.5895 277.347L89.5526 276.938C89.8082 275.744 90.3111 274.713 91.0611 273.844C91.8111 272.966 92.7784 272.293 93.9631 271.824C95.1563 271.347 96.5369 271.108 98.1051 271.108C99.196 271.108 100.24 271.236 101.237 271.491C102.243 271.747 103.134 272.143 103.909 272.68C104.693 273.217 105.311 273.908 105.763 274.751C106.214 275.587 106.44 276.588 106.44 277.756V291H101.276V288.277H101.122C100.807 288.891 100.385 289.432 99.8565 289.901C99.3281 290.361 98.6932 290.723 97.9517 290.987C97.2102 291.243 96.3537 291.371 95.3821 291.371ZM96.9418 287.612C97.7429 287.612 98.4503 287.455 99.0639 287.139C99.6776 286.815 100.159 286.381 100.509 285.835C100.858 285.29 101.033 284.672 101.033 283.982V281.898C100.862 282.009 100.628 282.111 100.33 282.205C100.04 282.29 99.7116 282.371 99.3452 282.447C98.9787 282.516 98.6122 282.58 98.2457 282.639C97.8793 282.69 97.5469 282.737 97.2486 282.78C96.6094 282.874 96.0511 283.023 95.5739 283.227C95.0966 283.432 94.7259 283.709 94.4616 284.058C94.1974 284.399 94.0653 284.825 94.0653 285.337C94.0653 286.078 94.3338 286.645 94.8707 287.037C95.4162 287.42 96.1065 287.612 96.9418 287.612ZM108.694 275.646V271.364H126.489V275.646H120.161V291H114.971V275.646H108.694ZM137.1 275.646V271.364H154.895V275.646H148.567V291H143.377V275.646H137.1ZM166.366 291.384C164.38 291.384 162.663 290.962 161.214 290.118C159.773 289.266 158.661 288.081 157.877 286.564C157.093 285.038 156.701 283.27 156.701 281.259C156.701 279.23 157.093 277.457 157.877 275.94C158.661 274.415 159.773 273.23 161.214 272.386C162.663 271.534 164.38 271.108 166.366 271.108C168.352 271.108 170.065 271.534 171.505 272.386C172.954 273.23 174.07 274.415 174.854 275.94C175.638 277.457 176.031 279.23 176.031 281.259C176.031 283.27 175.638 285.038 174.854 286.564C174.07 288.081 172.954 289.266 171.505 290.118C170.065 290.962 168.352 291.384 166.366 291.384ZM166.391 287.165C167.295 287.165 168.049 286.909 168.654 286.398C169.259 285.878 169.715 285.17 170.022 284.276C170.337 283.381 170.495 282.362 170.495 281.22C170.495 280.078 170.337 279.06 170.022 278.165C169.715 277.27 169.259 276.562 168.654 276.043C168.049 275.523 167.295 275.263 166.391 275.263C165.479 275.263 164.712 275.523 164.09 276.043C163.477 276.562 163.012 277.27 162.697 278.165C162.39 279.06 162.237 280.078 162.237 281.22C162.237 282.362 162.39 283.381 162.697 284.276C163.012 285.17 163.477 285.878 164.09 286.398C164.712 286.909 165.479 287.165 166.391 287.165ZM179.572 291V271.364H187.945C190.366 271.364 192.279 271.824 193.685 272.744C195.092 273.665 195.795 274.973 195.795 276.669C195.795 277.734 195.398 278.621 194.606 279.328C193.813 280.036 192.714 280.513 191.308 280.76C192.484 280.845 193.485 281.114 194.312 281.565C195.147 282.009 195.782 282.584 196.217 283.291C196.66 283.999 196.881 284.783 196.881 285.643C196.881 286.76 196.583 287.719 195.987 288.52C195.398 289.321 194.533 289.935 193.391 290.361C192.258 290.787 190.873 291 189.237 291H179.572ZM184.647 286.922H189.237C189.995 286.922 190.587 286.743 191.013 286.385C191.448 286.018 191.665 285.52 191.665 284.889C191.665 284.19 191.448 283.641 191.013 283.24C190.587 282.839 189.995 282.639 189.237 282.639H184.647V286.922ZM184.647 279.443H188.06C188.606 279.443 189.07 279.366 189.454 279.213C189.846 279.051 190.144 278.821 190.349 278.523C190.562 278.224 190.668 277.871 190.668 277.462C190.668 276.857 190.425 276.384 189.94 276.043C189.454 275.702 188.789 275.531 187.945 275.531H184.647V279.443ZM205.913 291.371C204.661 291.371 203.544 291.153 202.564 290.719C201.584 290.276 200.808 289.624 200.237 288.763C199.675 287.893 199.393 286.811 199.393 285.516C199.393 284.425 199.594 283.509 199.994 282.767C200.395 282.026 200.94 281.429 201.631 280.977C202.321 280.526 203.105 280.185 203.983 279.955C204.869 279.724 205.798 279.562 206.77 279.469C207.912 279.349 208.832 279.239 209.531 279.136C210.23 279.026 210.737 278.864 211.053 278.651C211.368 278.437 211.526 278.122 211.526 277.705V277.628C211.526 276.818 211.27 276.192 210.759 275.749C210.256 275.305 209.54 275.084 208.611 275.084C207.631 275.084 206.851 275.301 206.271 275.736C205.692 276.162 205.308 276.699 205.121 277.347L200.084 276.938C200.339 275.744 200.842 274.713 201.592 273.844C202.342 272.966 203.31 272.293 204.494 271.824C205.688 271.347 207.068 271.108 208.636 271.108C209.727 271.108 210.771 271.236 211.768 271.491C212.774 271.747 213.665 272.143 214.44 272.68C215.224 273.217 215.842 273.908 216.294 274.751C216.746 275.587 216.972 276.588 216.972 277.756V291H211.807V288.277H211.653C211.338 288.891 210.916 289.432 210.388 289.901C209.859 290.361 209.224 290.723 208.483 290.987C207.741 291.243 206.885 291.371 205.913 291.371ZM207.473 287.612C208.274 287.612 208.982 287.455 209.595 287.139C210.209 286.815 210.69 286.381 211.04 285.835C211.389 285.29 211.564 284.672 211.564 283.982V281.898C211.393 282.009 211.159 282.111 210.861 282.205C210.571 282.29 210.243 282.371 209.876 282.447C209.51 282.516 209.143 282.58 208.777 282.639C208.411 282.69 208.078 282.737 207.78 282.78C207.141 282.874 206.582 283.023 206.105 283.227C205.628 283.432 205.257 283.709 204.993 284.058C204.729 284.399 204.597 284.825 204.597 285.337C204.597 286.078 204.865 286.645 205.402 287.037C205.947 287.42 206.638 287.612 207.473 287.612ZM221.197 298.364V271.364H226.566V274.662H226.809C227.048 274.134 227.393 273.597 227.844 273.051C228.305 272.497 228.901 272.037 229.634 271.67C230.376 271.295 231.296 271.108 232.396 271.108C233.827 271.108 235.148 271.483 236.359 272.233C237.569 272.974 238.536 274.095 239.261 275.595C239.985 277.087 240.347 278.957 240.347 281.207C240.347 283.398 239.994 285.247 239.286 286.756C238.587 288.256 237.633 289.393 236.423 290.169C235.221 290.936 233.874 291.32 232.383 291.32C231.326 291.32 230.427 291.145 229.685 290.795C228.952 290.446 228.352 290.007 227.883 289.479C227.414 288.942 227.056 288.401 226.809 287.855H226.643V298.364H221.197ZM226.528 281.182C226.528 282.349 226.69 283.368 227.013 284.237C227.337 285.107 227.806 285.784 228.42 286.27C229.033 286.747 229.779 286.986 230.657 286.986C231.543 286.986 232.293 286.743 232.907 286.257C233.521 285.763 233.985 285.081 234.3 284.212C234.624 283.334 234.786 282.324 234.786 281.182C234.786 280.048 234.629 279.051 234.313 278.19C233.998 277.33 233.533 276.656 232.92 276.17C232.306 275.685 231.552 275.442 230.657 275.442C229.771 275.442 229.021 275.676 228.407 276.145C227.802 276.614 227.337 277.278 227.013 278.139C226.69 279 226.528 280.014 226.528 281.182ZM249.577 291.371C248.325 291.371 247.208 291.153 246.228 290.719C245.248 290.276 244.472 289.624 243.901 288.763C243.339 287.893 243.058 286.811 243.058 285.516C243.058 284.425 243.258 283.509 243.658 282.767C244.059 282.026 244.604 281.429 245.295 280.977C245.985 280.526 246.769 280.185 247.647 279.955C248.533 279.724 249.462 279.562 250.434 279.469C251.576 279.349 252.496 279.239 253.195 279.136C253.894 279.026 254.401 278.864 254.717 278.651C255.032 278.437 255.19 278.122 255.19 277.705V277.628C255.19 276.818 254.934 276.192 254.423 275.749C253.92 275.305 253.204 275.084 252.275 275.084C251.295 275.084 250.515 275.301 249.935 275.736C249.356 276.162 248.972 276.699 248.785 277.347L243.748 276.938C244.004 275.744 244.506 274.713 245.256 273.844C246.006 272.966 246.974 272.293 248.158 271.824C249.352 271.347 250.732 271.108 252.3 271.108C253.391 271.108 254.435 271.236 255.433 271.491C256.438 271.747 257.329 272.143 258.104 272.68C258.888 273.217 259.506 273.908 259.958 274.751C260.41 275.587 260.636 276.588 260.636 277.756V291H255.471V288.277H255.317C255.002 288.891 254.58 289.432 254.052 289.901C253.523 290.361 252.888 290.723 252.147 290.987C251.406 291.243 250.549 291.371 249.577 291.371ZM251.137 287.612C251.938 287.612 252.646 287.455 253.259 287.139C253.873 286.815 254.354 286.381 254.704 285.835C255.053 285.29 255.228 284.672 255.228 283.982V281.898C255.058 282.009 254.823 282.111 254.525 282.205C254.235 282.29 253.907 282.371 253.54 282.447C253.174 282.516 252.808 282.58 252.441 282.639C252.075 282.69 251.742 282.737 251.444 282.78C250.805 282.874 250.246 283.023 249.769 283.227C249.292 283.432 248.921 283.709 248.657 284.058C248.393 284.399 248.261 284.825 248.261 285.337C248.261 286.078 248.529 286.645 249.066 287.037C249.612 287.42 250.302 287.612 251.137 287.612Z" fill="white"/>
</svg>
