<svg width="212" height="204" viewBox="0 0 212 204" fill="none" xmlns="http://www.w3.org/2000/svg">
<path d="M25.3352 13.9091C25.3352 16.7642 24.794 19.1932 23.7116 21.196C22.6378 23.1989 21.1719 24.7287 19.3139 25.7855C17.4645 26.8338 15.3849 27.358 13.0753 27.358C10.7486 27.358 8.66051 26.8295 6.81108 25.7727C4.96165 24.7159 3.5 23.1861 2.42614 21.1832C1.35227 19.1804 0.815341 16.7557 0.815341 13.9091C0.815341 11.054 1.35227 8.625 2.42614 6.62216C3.5 4.61932 4.96165 3.09375 6.81108 2.04545C8.66051 0.988636 10.7486 0.460226 13.0753 0.460226C15.3849 0.460226 17.4645 0.988636 19.3139 2.04545C21.1719 3.09375 22.6378 4.61932 23.7116 6.62216C24.794 8.625 25.3352 11.054 25.3352 13.9091ZM19.723 13.9091C19.723 12.0597 19.446 10.5 18.892 9.23011C18.3466 7.96023 17.5753 6.99716 16.5781 6.34091C15.581 5.68466 14.4134 5.35653 13.0753 5.35653C11.7372 5.35653 10.5696 5.68466 9.57244 6.34091C8.57528 6.99716 7.79972 7.96023 7.24574 9.23011C6.70028 10.5 6.42756 12.0597 6.42756 13.9091C6.42756 15.7585 6.70028 17.3182 7.24574 18.5881C7.79972 19.858 8.57528 20.821 9.57244 21.4773C10.5696 22.1335 11.7372 22.4616 13.0753 22.4616C14.4134 22.4616 15.581 22.1335 16.5781 21.4773C17.5753 20.821 18.3466 19.858 18.892 18.5881C19.446 17.3182 19.723 15.7585 19.723 13.9091ZM37.6655 27V7.36364H43.1115V14.983H44.6456L49.9893 7.36364H56.3814L49.4396 17.1051L56.4581 27H49.9893L45.1442 20.0327H43.1115V27H37.6655ZM66.8228 27.3835C64.837 27.3835 63.1197 26.9616 61.6708 26.1179C60.2305 25.2656 59.1183 24.081 58.3342 22.5639C57.5501 21.0384 57.158 19.2699 57.158 17.2585C57.158 15.2301 57.5501 13.4574 58.3342 11.9403C59.1183 10.4148 60.2305 9.23011 61.6708 8.38636C63.1197 7.53409 64.837 7.10795 66.8228 7.10795C68.8086 7.10795 70.5217 7.53409 71.962 8.38636C73.4109 9.23011 74.5273 10.4148 75.3114 11.9403C76.0955 13.4574 76.4876 15.2301 76.4876 17.2585C76.4876 19.2699 76.0955 21.0384 75.3114 22.5639C74.5273 24.081 73.4109 25.2656 71.962 26.1179C70.5217 26.9616 68.8086 27.3835 66.8228 27.3835ZM66.8484 23.1648C67.7518 23.1648 68.506 22.9091 69.1112 22.3977C69.7163 21.8778 70.1722 21.1705 70.479 20.2756C70.7944 19.3807 70.9521 18.3622 70.9521 17.2202C70.9521 16.0781 70.7944 15.0597 70.479 14.1648C70.1722 13.2699 69.7163 12.5625 69.1112 12.0426C68.506 11.5227 67.7518 11.2628 66.8484 11.2628C65.9364 11.2628 65.1694 11.5227 64.5472 12.0426C63.9336 12.5625 63.4691 13.2699 63.1538 14.1648C62.8469 15.0597 62.6935 16.0781 62.6935 17.2202C62.6935 18.3622 62.8469 19.3807 63.1538 20.2756C63.4691 21.1705 63.9336 21.8778 64.5472 22.3977C65.1694 22.9091 65.9364 23.1648 66.8484 23.1648ZM91.6367 20.9787L96.9549 7.36364H101.097L93.4393 27H89.8214L82.3427 7.36364H86.4719L91.6367 20.9787ZM85.2319 7.36364V27H80.0288V7.36364H85.2319ZM98.31 27V7.36364H103.449V27H98.31ZM107.662 27V7.36364H124.831V27H119.627V11.6463H112.801V27H107.662ZM134.777 27.3707C133.524 27.3707 132.407 27.1534 131.427 26.7188C130.447 26.2756 129.672 25.6236 129.1 24.7628C128.538 23.8935 128.257 22.8111 128.257 21.5156C128.257 20.4247 128.457 19.5085 128.858 18.767C129.258 18.0256 129.804 17.429 130.494 16.9773C131.184 16.5256 131.968 16.1847 132.846 15.9545C133.733 15.7244 134.662 15.5625 135.633 15.4688C136.775 15.3494 137.696 15.2386 138.395 15.1364C139.093 15.0256 139.6 14.8636 139.916 14.6506C140.231 14.4375 140.389 14.1222 140.389 13.7045V13.6278C140.389 12.8182 140.133 12.1918 139.622 11.7486C139.119 11.3054 138.403 11.0838 137.474 11.0838C136.494 11.0838 135.714 11.3011 135.135 11.7358C134.555 12.1619 134.172 12.6989 133.984 13.3466L128.947 12.9375C129.203 11.7443 129.706 10.7131 130.456 9.84375C131.206 8.96591 132.173 8.29261 133.358 7.82386C134.551 7.34659 135.931 7.10795 137.5 7.10795C138.591 7.10795 139.635 7.2358 140.632 7.49148C141.637 7.74716 142.528 8.14347 143.304 8.6804C144.088 9.21733 144.706 9.90767 145.157 10.7514C145.609 11.5866 145.835 12.5881 145.835 13.7557V27H140.67V24.277H140.517C140.201 24.8906 139.779 25.4318 139.251 25.9006C138.723 26.3608 138.088 26.723 137.346 26.9872C136.605 27.2429 135.748 27.3707 134.777 27.3707ZM136.336 23.6122C137.137 23.6122 137.845 23.4545 138.458 23.1392C139.072 22.8153 139.554 22.3807 139.903 21.8352C140.252 21.2898 140.427 20.6719 140.427 19.9815V17.8977C140.257 18.0085 140.022 18.1108 139.724 18.2045C139.434 18.2898 139.106 18.3707 138.74 18.4474C138.373 18.5156 138.007 18.5795 137.64 18.6392C137.274 18.6903 136.941 18.7372 136.643 18.7798C136.004 18.8736 135.446 19.0227 134.968 19.2273C134.491 19.4318 134.12 19.7088 133.856 20.0582C133.592 20.3991 133.46 20.8253 133.46 21.3366C133.46 22.0781 133.728 22.6449 134.265 23.0369C134.811 23.4205 135.501 23.6122 136.336 23.6122ZM163.726 15.0085V19.2912H153.473V15.0085H163.726ZM155.263 7.36364V27H150.06V7.36364H155.263ZM167.14 7.36364V27H161.975V7.36364H167.14ZM176.568 19.8153L183.637 7.36364H189.007V27H183.816V14.5099L176.772 27H171.365V7.36364H176.568V19.8153ZM198.576 19.8153L205.645 7.36364H211.015V27H205.824V14.5099L198.78 27H193.373V7.36364H198.576V19.8153ZM1.27557 115V88.8182H11.6051C13.5909 88.8182 15.2827 89.1974 16.6804 89.956C18.0781 90.706 19.1435 91.75 19.8764 93.0881C20.6179 94.4176 20.9886 95.9517 20.9886 97.6903C20.9886 99.429 20.6136 100.963 19.8636 102.293C19.1136 103.622 18.027 104.658 16.6037 105.399C15.1889 106.141 13.4759 106.511 11.4645 106.511H4.88068V102.075H10.5696C11.6349 102.075 12.5128 101.892 13.2031 101.526C13.902 101.151 14.4219 100.635 14.7628 99.9787C15.1122 99.3139 15.2869 98.5511 15.2869 97.6903C15.2869 96.821 15.1122 96.0625 14.7628 95.4148C14.4219 94.7585 13.902 94.2514 13.2031 93.8935C12.5043 93.527 11.6179 93.3438 10.544 93.3438H6.81108V115H1.27557ZM33.1143 115.384C31.0945 115.384 29.3558 114.974 27.8984 114.156C26.4496 113.33 25.3331 112.162 24.549 110.653C23.7649 109.136 23.3729 107.342 23.3729 105.271C23.3729 103.251 23.7649 101.479 24.549 99.9531C25.3331 98.4276 26.4368 97.2386 27.8601 96.3864C29.2919 95.5341 30.9709 95.108 32.897 95.108C34.1925 95.108 35.3984 95.3168 36.5149 95.7344C37.6399 96.1435 38.62 96.7614 39.4553 97.5881C40.299 98.4148 40.9553 99.4545 41.424 100.707C41.8928 101.952 42.1271 103.409 42.1271 105.08V106.575H25.5462V103.2H37.0007C37.0007 102.416 36.8303 101.722 36.4893 101.116C36.1484 100.511 35.6754 100.038 35.0703 99.6974C34.4737 99.348 33.7791 99.1733 32.9865 99.1733C32.1598 99.1733 31.4268 99.3651 30.7876 99.7486C30.157 100.124 29.6626 100.631 29.3047 101.27C28.9467 101.901 28.7635 102.604 28.755 103.379V106.588C28.755 107.56 28.9339 108.399 29.2919 109.107C29.6584 109.814 30.174 110.359 30.8388 110.743C31.5036 111.126 32.2919 111.318 33.2038 111.318C33.8089 111.318 34.3629 111.233 34.8658 111.062C35.3686 110.892 35.799 110.636 36.157 110.295C36.5149 109.955 36.7876 109.537 36.9751 109.043L42.0121 109.375C41.7564 110.585 41.2322 111.642 40.4396 112.545C39.6555 113.44 38.6413 114.139 37.397 114.642C36.1612 115.136 34.7337 115.384 33.1143 115.384ZM45.6811 115V95.3636H51.1271V102.983H52.6612L58.005 95.3636H64.397L57.4553 105.105L64.4737 115H58.005L53.1598 108.033H51.1271V115H45.6811ZM66.7749 115V95.3636H75.1484C77.5689 95.3636 79.4822 95.8239 80.8885 96.7443C82.2947 97.6648 82.9979 98.973 82.9979 100.669C82.9979 101.734 82.6016 102.621 81.8089 103.328C81.0163 104.036 79.9169 104.513 78.5107 104.76C79.6868 104.845 80.6882 105.114 81.5149 105.565C82.3501 106.009 82.9851 106.584 83.4197 107.291C83.8629 107.999 84.0845 108.783 84.0845 109.643C84.0845 110.76 83.7862 111.719 83.1896 112.52C82.6016 113.321 81.7365 113.935 80.5945 114.361C79.4609 114.787 78.076 115 76.4396 115H66.7749ZM71.8501 110.922H76.4396C77.1982 110.922 77.7905 110.743 78.2166 110.385C78.6513 110.018 78.8686 109.52 78.8686 108.889C78.8686 108.19 78.6513 107.641 78.2166 107.24C77.7905 106.839 77.1982 106.639 76.4396 106.639H71.8501V110.922ZM71.8501 103.443H75.2635C75.8089 103.443 76.2734 103.366 76.657 103.213C77.049 103.051 77.3473 102.821 77.5518 102.523C77.7649 102.224 77.8714 101.871 77.8714 101.462C77.8714 100.857 77.6286 100.384 77.1428 100.043C76.657 99.7017 75.9922 99.5312 75.1484 99.5312H71.8501V103.443ZM92.7202 107.815L99.7898 95.3636H105.159V115H99.9688V102.51L92.9247 115H87.517V95.3636H92.7202V107.815ZM108.515 109.439H113.795C113.82 110.087 114.11 110.598 114.664 110.973C115.218 111.348 115.934 111.536 116.812 111.536C117.698 111.536 118.444 111.331 119.049 110.922C119.654 110.504 119.957 109.908 119.957 109.132C119.957 108.655 119.837 108.241 119.599 107.892C119.36 107.534 119.028 107.253 118.602 107.048C118.175 106.844 117.681 106.741 117.119 106.741H114.293V103.175H117.119C117.962 103.175 118.61 102.979 119.062 102.587C119.522 102.195 119.752 101.705 119.752 101.116C119.752 100.452 119.513 99.919 119.036 99.5185C118.567 99.1094 117.933 98.9048 117.131 98.9048C116.322 98.9048 115.648 99.0881 115.112 99.4545C114.583 99.8125 114.31 100.281 114.293 100.861H109.039C109.056 99.6847 109.41 98.6662 110.1 97.8054C110.799 96.9446 111.737 96.2798 112.913 95.8111C114.097 95.3423 115.423 95.108 116.888 95.108C118.491 95.108 119.871 95.3338 121.031 95.7855C122.198 96.2287 123.093 96.8636 123.715 97.6903C124.346 98.517 124.661 99.5014 124.661 100.643C124.661 101.683 124.32 102.553 123.638 103.251C122.957 103.95 122.002 104.449 120.775 104.747V104.952C121.585 105.003 122.317 105.22 122.974 105.604C123.63 105.987 124.154 106.516 124.546 107.189C124.938 107.854 125.134 108.642 125.134 109.554C125.134 110.773 124.776 111.817 124.06 112.686C123.353 113.555 122.373 114.224 121.12 114.693C119.876 115.153 118.448 115.384 116.837 115.384C115.269 115.384 113.863 115.158 112.619 114.706C111.383 114.246 110.398 113.572 109.665 112.686C108.941 111.8 108.558 110.717 108.515 109.439ZM133.677 107.815L140.747 95.3636H146.116V115H140.926V102.51L133.882 115H128.474V95.3636H133.677V107.815ZM148.51 99.6463V95.3636H166.305V99.6463H159.977V115H154.787V99.6463H148.51ZM173.02 101.398H178.888C181.488 101.398 183.516 102.02 184.973 103.264C186.431 104.5 187.159 106.153 187.159 108.224C187.159 109.571 186.831 110.756 186.175 111.778C185.519 112.793 184.573 113.585 183.337 114.156C182.101 114.719 180.618 115 178.888 115H169.607V95.3636H174.81V110.717H178.888C179.8 110.717 180.55 110.487 181.138 110.027C181.726 109.567 182.025 108.979 182.033 108.263C182.025 107.504 181.726 106.886 181.138 106.409C180.55 105.923 179.8 105.68 178.888 105.68H173.02V101.398ZM189.269 115V95.3636H194.715V115H189.269ZM17.1151 203L8.70312 191.839H6.81108V203H1.27557V176.818H6.81108V187.276H7.9233L16.6165 176.818H23.5071L13.2926 188.963L23.9801 203H17.1151ZM34.0923 203.384C32.1065 203.384 30.3892 202.962 28.9403 202.118C27.5 201.266 26.3878 200.081 25.6037 198.564C24.8196 197.038 24.4276 195.27 24.4276 193.259C24.4276 191.23 24.8196 189.457 25.6037 187.94C26.3878 186.415 27.5 185.23 28.9403 184.386C30.3892 183.534 32.1065 183.108 34.0923 183.108C36.0781 183.108 37.7912 183.534 39.2315 184.386C40.6804 185.23 41.7969 186.415 42.581 187.94C43.3651 189.457 43.7571 191.23 43.7571 193.259C43.7571 195.27 43.3651 197.038 42.581 198.564C41.7969 200.081 40.6804 201.266 39.2315 202.118C37.7912 202.962 36.0781 203.384 34.0923 203.384ZM34.1179 199.165C35.0213 199.165 35.7756 198.909 36.3807 198.398C36.9858 197.878 37.4418 197.17 37.7486 196.276C38.0639 195.381 38.2216 194.362 38.2216 193.22C38.2216 192.078 38.0639 191.06 37.7486 190.165C37.4418 189.27 36.9858 188.562 36.3807 188.043C35.7756 187.523 35.0213 187.263 34.1179 187.263C33.206 187.263 32.4389 187.523 31.8168 188.043C31.2031 188.562 30.7386 189.27 30.4233 190.165C30.1165 191.06 29.9631 192.078 29.9631 193.22C29.9631 194.362 30.1165 195.381 30.4233 196.276C30.7386 197.17 31.2031 197.878 31.8168 198.398C32.4389 198.909 33.206 199.165 34.1179 199.165ZM60.9645 191.009V195.291H50.7116V191.009H60.9645ZM52.5014 183.364V203H47.2983V183.364H52.5014ZM64.3778 183.364V203H59.2131V183.364H64.3778ZM66.631 187.646V183.364H84.4265V187.646H78.0984V203H72.908V187.646H66.631ZM92.6243 203.371C91.3714 203.371 90.255 203.153 89.2749 202.719C88.2947 202.276 87.5192 201.624 86.9482 200.763C86.3857 199.893 86.1044 198.811 86.1044 197.516C86.1044 196.425 86.3047 195.509 86.7053 194.767C87.1058 194.026 87.6513 193.429 88.3416 192.977C89.032 192.526 89.8161 192.185 90.6939 191.955C91.5803 191.724 92.5092 191.562 93.4808 191.469C94.6229 191.349 95.5433 191.239 96.2422 191.136C96.9411 191.026 97.4482 190.864 97.7635 190.651C98.0788 190.437 98.2365 190.122 98.2365 189.705V189.628C98.2365 188.818 97.9808 188.192 97.4695 187.749C96.9666 187.305 96.2507 187.084 95.3217 187.084C94.3416 187.084 93.5618 187.301 92.9822 187.736C92.4027 188.162 92.0192 188.699 91.8317 189.347L86.7947 188.938C87.0504 187.744 87.5533 186.713 88.3033 185.844C89.0533 184.966 90.0206 184.293 91.2053 183.824C92.3984 183.347 93.7791 183.108 95.3473 183.108C96.4382 183.108 97.4822 183.236 98.4794 183.491C99.4851 183.747 100.376 184.143 101.151 184.68C101.935 185.217 102.553 185.908 103.005 186.751C103.457 187.587 103.683 188.588 103.683 189.756V203H98.5178V200.277H98.3643C98.049 200.891 97.6271 201.432 97.0987 201.901C96.5703 202.361 95.9354 202.723 95.1939 202.987C94.4524 203.243 93.5959 203.371 92.6243 203.371ZM94.1839 199.612C94.9851 199.612 95.6925 199.455 96.3061 199.139C96.9197 198.815 97.4013 198.381 97.7507 197.835C98.1001 197.29 98.2749 196.672 98.2749 195.982V193.898C98.1044 194.009 97.87 194.111 97.5717 194.205C97.282 194.29 96.9538 194.371 96.5874 194.447C96.2209 194.516 95.8544 194.58 95.4879 194.639C95.1214 194.69 94.7891 194.737 94.4908 194.78C93.8516 194.874 93.2933 195.023 92.8161 195.227C92.3388 195.432 91.968 195.709 91.7038 196.058C91.4396 196.399 91.3075 196.825 91.3075 197.337C91.3075 198.078 91.576 198.645 92.1129 199.037C92.6584 199.42 93.3487 199.612 94.1839 199.612ZM107.908 203V183.364H113.354V190.983H114.888L120.232 183.364H126.624L119.682 193.105L126.7 203H120.232L115.386 196.033H113.354V203H107.908ZM127.979 187.646V183.364H145.774V187.646H139.446V203H134.256V187.646H127.979ZM152.489 189.398H158.357C160.956 189.398 162.985 190.02 164.442 191.264C165.9 192.5 166.628 194.153 166.628 196.224C166.628 197.571 166.3 198.756 165.644 199.778C164.988 200.793 164.042 201.585 162.806 202.156C161.57 202.719 160.087 203 158.357 203H149.076V183.364H154.279V198.717H158.357C159.269 198.717 160.019 198.487 160.607 198.027C161.195 197.567 161.493 196.979 161.502 196.263C161.493 195.504 161.195 194.886 160.607 194.409C160.019 193.923 159.269 193.68 158.357 193.68H152.489V189.398ZM168.738 203V183.364H174.184V203H168.738Z" fill="white"/>
</svg>
