<svg width="382" height="204" viewBox="0 0 382 204" fill="none" xmlns="http://www.w3.org/2000/svg">
<path d="M0.275568 27V0.818181H5.81108V11.6207H17.0483V0.818181H22.571V27H17.0483V16.1847H5.81108V27H0.275568ZM35.9048 27.3835C33.919 27.3835 32.2017 26.9616 30.7528 26.1179C29.3125 25.2656 28.2003 24.081 27.4162 22.5639C26.6321 21.0384 26.2401 19.2699 26.2401 17.2585C26.2401 15.2301 26.6321 13.4574 27.4162 11.9403C28.2003 10.4148 29.3125 9.23011 30.7528 8.38636C32.2017 7.53409 33.919 7.10795 35.9048 7.10795C37.8906 7.10795 39.6037 7.53409 41.044 8.38636C42.4929 9.23011 43.6094 10.4148 44.3935 11.9403C45.1776 13.4574 45.5696 15.2301 45.5696 17.2585C45.5696 19.2699 45.1776 21.0384 44.3935 22.5639C43.6094 24.081 42.4929 25.2656 41.044 26.1179C39.6037 26.9616 37.8906 27.3835 35.9048 27.3835ZM35.9304 23.1648C36.8338 23.1648 37.5881 22.9091 38.1932 22.3977C38.7983 21.8778 39.2543 21.1705 39.5611 20.2756C39.8764 19.3807 40.0341 18.3622 40.0341 17.2202C40.0341 16.0781 39.8764 15.0597 39.5611 14.1648C39.2543 13.2699 38.7983 12.5625 38.1932 12.0426C37.5881 11.5227 36.8338 11.2628 35.9304 11.2628C35.0185 11.2628 34.2514 11.5227 33.6293 12.0426C33.0156 12.5625 32.5511 13.2699 32.2358 14.1648C31.929 15.0597 31.7756 16.0781 31.7756 17.2202C31.7756 18.3622 31.929 19.3807 32.2358 20.2756C32.5511 21.1705 33.0156 21.8778 33.6293 22.3977C34.2514 22.9091 35.0185 23.1648 35.9304 23.1648ZM60.7188 20.9787L66.0369 7.36364H70.179L62.5213 27H58.9034L51.4247 7.36364H55.554L60.7188 20.9787ZM54.3139 7.36364V27H49.1108V7.36364H54.3139ZM67.392 27V7.36364H72.5312V27H67.392ZM85.6925 27.3835C83.6726 27.3835 81.9339 26.9744 80.4766 26.1562C79.0277 25.3295 77.9112 24.1619 77.1271 22.6534C76.343 21.1364 75.951 19.3423 75.951 17.2713C75.951 15.2514 76.343 13.4787 77.1271 11.9531C77.9112 10.4276 79.0149 9.23864 80.4382 8.38636C81.87 7.53409 83.549 7.10795 85.4751 7.10795C86.7706 7.10795 87.9766 7.31676 89.093 7.73438C90.218 8.14347 91.1982 8.76136 92.0334 9.58807C92.8771 10.4148 93.5334 11.4545 94.0021 12.7074C94.4709 13.9517 94.7053 15.4091 94.7053 17.0795V18.5753H78.1243V15.2003H89.5788C89.5788 14.4162 89.4084 13.7216 89.0675 13.1165C88.7266 12.5114 88.2536 12.0384 87.6484 11.6974C87.0518 11.348 86.3572 11.1733 85.5646 11.1733C84.7379 11.1733 84.005 11.3651 83.3658 11.7486C82.7351 12.1236 82.2408 12.6307 81.8828 13.2699C81.5249 13.9006 81.3416 14.6037 81.3331 15.3793V18.5881C81.3331 19.5597 81.5121 20.3991 81.87 21.1065C82.2365 21.8139 82.7521 22.3594 83.4169 22.7429C84.0817 23.1264 84.87 23.3182 85.782 23.3182C86.3871 23.3182 86.9411 23.233 87.4439 23.0625C87.9467 22.892 88.3771 22.6364 88.7351 22.2955C89.093 21.9545 89.3658 21.5369 89.5533 21.0426L94.5902 21.375C94.3345 22.5852 93.8104 23.642 93.0178 24.5455C92.2337 25.4403 91.2195 26.1392 89.9751 26.642C88.7393 27.1364 87.3118 27.3835 85.6925 27.3835ZM98.2592 34.3636V7.36364H103.629V10.6619H103.871C104.11 10.1335 104.455 9.59659 104.907 9.05114C105.367 8.49716 105.964 8.03693 106.697 7.67045C107.438 7.29545 108.359 7.10795 109.458 7.10795C110.89 7.10795 112.211 7.48295 113.421 8.23295C114.631 8.97443 115.599 10.0952 116.323 11.5952C117.048 13.0866 117.41 14.9574 117.41 17.2074C117.41 19.3977 117.056 21.2472 116.349 22.7557C115.65 24.2557 114.695 25.3935 113.485 26.169C112.283 26.9361 110.937 27.3196 109.445 27.3196C108.388 27.3196 107.489 27.1449 106.748 26.7955C106.015 26.446 105.414 26.0071 104.945 25.4787C104.477 24.9418 104.119 24.4006 103.871 23.8551H103.705V34.3636H98.2592ZM103.59 17.1818C103.59 18.3494 103.752 19.3679 104.076 20.2372C104.4 21.1065 104.869 21.7841 105.482 22.2699C106.096 22.7472 106.842 22.9858 107.719 22.9858C108.606 22.9858 109.356 22.7429 109.969 22.2571C110.583 21.7628 111.048 21.081 111.363 20.2116C111.687 19.3338 111.849 18.3239 111.849 17.1818C111.849 16.0483 111.691 15.0511 111.376 14.1903C111.06 13.3295 110.596 12.6562 109.982 12.1705C109.369 11.6847 108.614 11.4418 107.719 11.4418C106.833 11.4418 106.083 11.6761 105.469 12.1449C104.864 12.6136 104.4 13.2784 104.076 14.1392C103.752 15 103.59 16.0142 103.59 17.1818ZM127.838 32.7528V22.679H129.347C129.782 22.4062 130.131 21.9716 130.395 21.375C130.668 20.7784 130.89 20.0753 131.06 19.2656C131.239 18.456 131.375 17.5824 131.469 16.6449C131.571 15.6989 131.661 14.7443 131.738 13.7812L132.249 7.36364H147.309V22.679H150.351V32.7528H145.161V27H133.157V32.7528H127.838ZM134.767 22.679H142.169V11.5568H136.877L136.672 13.7812C136.527 15.8778 136.319 17.6591 136.046 19.125C135.773 20.5824 135.347 21.767 134.767 22.679ZM152.374 27L152.349 22.679H153.001C153.461 22.679 153.857 22.5682 154.19 22.3466C154.531 22.1165 154.812 21.7457 155.033 21.2344C155.255 20.723 155.43 20.0455 155.558 19.2017C155.685 18.3494 155.771 17.3011 155.813 16.0568L156.133 7.36364H171.065V27H165.874V11.6463H161.029L160.722 17.642C160.646 19.2869 160.445 20.7017 160.121 21.8864C159.806 23.071 159.367 24.0426 158.805 24.8011C158.242 25.5511 157.565 26.1051 156.772 26.4631C155.979 26.821 155.059 27 154.011 27H152.374ZM186.792 27V11.6335H183.11C182.113 11.6335 181.355 11.8636 180.835 12.3239C180.315 12.7841 180.059 13.3295 180.068 13.9602C180.059 14.5994 180.306 15.1406 180.809 15.5838C181.321 16.0185 182.071 16.2358 183.059 16.2358H188.608V19.9176H183.059C181.38 19.9176 179.927 19.6619 178.7 19.1506C177.473 18.6392 176.527 17.9276 175.862 17.0156C175.197 16.0952 174.869 15.0256 174.877 13.8068C174.869 12.5284 175.197 11.4077 175.862 10.4446C176.527 9.47301 177.477 8.71875 178.713 8.18182C179.957 7.63636 181.423 7.36364 183.11 7.36364H191.868V27H186.792ZM174.315 27L179.774 16.7727H184.977L179.531 27H174.315ZM213.303 27.3835C211.292 27.3835 209.562 26.9574 208.113 26.1051C206.673 25.2443 205.565 24.0511 204.789 22.5256C204.022 21 203.638 19.2443 203.638 17.2585C203.638 15.2472 204.026 13.483 204.802 11.9659C205.586 10.4403 206.698 9.25142 208.138 8.39915C209.579 7.53835 211.292 7.10795 213.278 7.10795C214.991 7.10795 216.491 7.41903 217.778 8.04119C219.065 8.66335 220.083 9.53693 220.833 10.6619C221.583 11.7869 221.996 13.108 222.073 14.625H216.934C216.789 13.6449 216.406 12.8565 215.783 12.2599C215.17 11.6548 214.364 11.3523 213.367 11.3523C212.523 11.3523 211.786 11.5824 211.156 12.0426C210.533 12.4943 210.048 13.1548 209.698 14.0241C209.349 14.8935 209.174 15.946 209.174 17.1818C209.174 18.4347 209.344 19.5 209.685 20.3778C210.035 21.2557 210.525 21.9247 211.156 22.3849C211.786 22.8452 212.523 23.0753 213.367 23.0753C213.989 23.0753 214.548 22.9474 215.042 22.6918C215.545 22.4361 215.958 22.0653 216.282 21.5795C216.614 21.0852 216.832 20.4929 216.934 19.8026H222.073C221.988 21.3026 221.579 22.6236 220.846 23.7656C220.121 24.8991 219.12 25.7855 217.842 26.4247C216.563 27.0639 215.05 27.3835 213.303 27.3835ZM225.56 27V7.36364H233.934C236.354 7.36364 238.267 7.82386 239.674 8.74432C241.08 9.66477 241.783 10.973 241.783 12.669C241.783 13.7344 241.387 14.6207 240.594 15.3281C239.801 16.0355 238.702 16.5128 237.296 16.7599C238.472 16.8452 239.473 17.1136 240.3 17.5653C241.135 18.0085 241.77 18.5838 242.205 19.2912C242.648 19.9986 242.87 20.7827 242.87 21.6435C242.87 22.7599 242.571 23.7187 241.975 24.5199C241.387 25.321 240.522 25.9347 239.38 26.3608C238.246 26.7869 236.861 27 235.225 27H225.56ZM230.635 22.9219H235.225C235.983 22.9219 236.576 22.7429 237.002 22.3849C237.436 22.0185 237.654 21.5199 237.654 20.8892C237.654 20.1903 237.436 19.6406 237.002 19.2401C236.576 18.8395 235.983 18.6392 235.225 18.6392H230.635V22.9219ZM230.635 15.4432H234.049C234.594 15.4432 235.059 15.3665 235.442 15.2131C235.834 15.0511 236.132 14.821 236.337 14.5227C236.55 14.2244 236.657 13.8707 236.657 13.4616C236.657 12.8565 236.414 12.3835 235.928 12.0426C235.442 11.7017 234.777 11.5312 233.934 11.5312H230.635V15.4432ZM257.808 27V11.6335H254.126C253.129 11.6335 252.37 11.8636 251.85 12.3239C251.331 12.7841 251.075 13.3295 251.083 13.9602C251.075 14.5994 251.322 15.1406 251.825 15.5838C252.336 16.0185 253.086 16.2358 254.075 16.2358H259.623V19.9176H254.075C252.396 19.9176 250.943 19.6619 249.716 19.1506C248.488 18.6392 247.542 17.9276 246.877 17.0156C246.213 16.0952 245.885 15.0256 245.893 13.8068C245.885 12.5284 246.213 11.4077 246.877 10.4446C247.542 9.47301 248.493 8.71875 249.728 8.18182C250.973 7.63636 252.439 7.36364 254.126 7.36364H262.883V27H257.808ZM245.331 27L250.789 16.7727H255.993L250.547 27H245.331ZM266.105 21.4389H271.385C271.41 22.0866 271.7 22.598 272.254 22.973C272.808 23.348 273.524 23.5355 274.402 23.5355C275.288 23.5355 276.034 23.331 276.639 22.9219C277.244 22.5043 277.547 21.9077 277.547 21.1321C277.547 20.6548 277.427 20.2415 277.189 19.892C276.95 19.5341 276.618 19.2528 276.191 19.0483C275.765 18.8437 275.271 18.7415 274.708 18.7415H271.883V15.1747H274.708C275.552 15.1747 276.2 14.9787 276.652 14.5866C277.112 14.1946 277.342 13.7045 277.342 13.1165C277.342 12.4517 277.103 11.919 276.626 11.5185C276.157 11.1094 275.522 10.9048 274.721 10.9048C273.912 10.9048 273.238 11.0881 272.701 11.4545C272.173 11.8125 271.9 12.2812 271.883 12.8608H266.629C266.646 11.6847 267 10.6662 267.69 9.8054C268.389 8.9446 269.326 8.27983 270.502 7.81108C271.687 7.34233 273.012 7.10795 274.478 7.10795C276.081 7.10795 277.461 7.33381 278.62 7.78551C279.788 8.22869 280.683 8.86364 281.305 9.69034C281.936 10.517 282.251 11.5014 282.251 12.6435C282.251 13.6832 281.91 14.5526 281.228 15.2514C280.547 15.9503 279.592 16.4489 278.365 16.7472V16.9517C279.174 17.0028 279.907 17.2202 280.564 17.6037C281.22 17.9872 281.744 18.5156 282.136 19.1889C282.528 19.8537 282.724 20.642 282.724 21.554C282.724 22.7727 282.366 23.8168 281.65 24.6861C280.943 25.5554 279.963 26.2244 278.71 26.6932C277.466 27.1534 276.038 27.3835 274.427 27.3835C272.859 27.3835 271.453 27.1577 270.208 26.706C268.973 26.2457 267.988 25.5724 267.255 24.6861C266.531 23.7997 266.147 22.7173 266.105 21.4389ZM291.267 19.8153L298.337 7.36364H303.706V27H298.516V14.5099L291.472 27H286.064V7.36364H291.267V19.8153ZM319.587 27.3324C318.743 27.3324 318.019 27.0341 317.414 26.4375C316.817 25.8324 316.519 25.108 316.519 24.2642C316.519 23.429 316.817 22.7131 317.414 22.1165C318.019 21.5199 318.743 21.2216 319.587 21.2216C320.405 21.2216 321.121 21.5199 321.735 22.1165C322.348 22.7131 322.655 23.429 322.655 24.2642C322.655 24.8267 322.51 25.3423 322.221 25.8111C321.939 26.2713 321.569 26.642 321.108 26.9233C320.648 27.196 320.141 27.3324 319.587 27.3324ZM319.587 13.5767C318.743 13.5767 318.019 13.2784 317.414 12.6818C316.817 12.0852 316.519 11.3608 316.519 10.5085C316.519 9.67329 316.817 8.96165 317.414 8.37358C318.019 7.77699 318.743 7.47869 319.587 7.47869C320.405 7.47869 321.121 7.77699 321.735 8.37358C322.348 8.96165 322.655 9.67329 322.655 10.5085C322.655 11.0795 322.51 11.5994 322.221 12.0682C321.939 12.5284 321.569 12.8949 321.108 13.1676C320.648 13.4403 320.141 13.5767 319.587 13.5767ZM7.94602 111.011V92.9091H12.5227V111.011H7.94602ZM1.18324 104.249V99.6719H19.2855V104.249H1.18324ZM24.5717 115L35.4254 93.5227V93.3438H22.782V88.8182H41.1527V93.4077L30.2862 115H24.5717ZM65.5639 99.7486V104.07H53.6236V99.7486H65.5639ZM71.4062 101.909C71.4062 98.7386 71.8281 95.8196 72.6719 93.152C73.5241 90.4844 74.8239 88.0128 76.571 85.7372H81.7741C81.1094 86.581 80.4915 87.6122 79.9205 88.831C79.3494 90.0412 78.8509 91.3707 78.4247 92.8196C77.9986 94.2685 77.6662 95.7685 77.4276 97.3196C77.1889 98.8622 77.0696 100.392 77.0696 101.909C77.0696 103.929 77.2741 105.97 77.6832 108.033C78.1009 110.087 78.6634 111.996 79.3707 113.76C80.0866 115.524 80.8878 116.969 81.7741 118.094H76.571C74.8239 115.818 73.5241 113.347 72.6719 110.679C71.8281 108.011 71.4062 105.088 71.4062 101.909ZM94.3569 88.4602C95.7035 88.4602 96.9989 88.6861 98.2433 89.1378C99.4961 89.5895 100.613 90.3097 101.593 91.2983C102.581 92.2869 103.361 93.5994 103.932 95.2358C104.512 96.8636 104.806 98.8622 104.814 101.232C104.814 103.456 104.563 105.442 104.06 107.189C103.566 108.928 102.854 110.406 101.925 111.625C100.996 112.844 99.8754 113.773 98.5629 114.412C97.2504 115.043 95.7844 115.358 94.1651 115.358C92.418 115.358 90.8754 115.021 89.5373 114.348C88.1992 113.666 87.1211 112.741 86.3029 111.574C85.4933 110.398 85.0032 109.077 84.8327 107.611H90.2915C90.5046 108.565 90.9521 109.307 91.6339 109.835C92.3157 110.355 93.1594 110.615 94.1651 110.615C95.8697 110.615 97.1651 109.874 98.0515 108.391C98.9379 106.899 99.3853 104.858 99.3938 102.267H99.2148C98.8228 103.034 98.2944 103.695 97.6296 104.249C96.9648 104.794 96.2021 105.216 95.3413 105.514C94.489 105.812 93.5813 105.962 92.6183 105.962C91.0756 105.962 89.6992 105.599 88.489 104.875C87.2788 104.151 86.3242 103.153 85.6254 101.884C84.9265 100.614 84.5771 99.1648 84.5771 97.5369C84.5685 95.7812 84.9734 94.2173 85.7915 92.8452C86.6097 91.473 87.7518 90.3991 89.2177 89.6236C90.6921 88.8395 92.4052 88.4517 94.3569 88.4602ZM94.3952 92.8068C93.5344 92.8068 92.7674 93.0114 92.0941 93.4205C91.4293 93.8295 90.9009 94.3793 90.5089 95.0696C90.1254 95.7599 89.9379 96.5312 89.9464 97.3835C89.9464 98.2443 90.1339 99.0199 90.5089 99.7102C90.8924 100.392 91.4123 100.937 92.0685 101.347C92.7333 101.747 93.4918 101.947 94.3441 101.947C94.9833 101.947 95.5756 101.828 96.1211 101.589C96.6665 101.351 97.1396 101.023 97.5401 100.605C97.9492 100.179 98.2688 99.6889 98.4989 99.1349C98.729 98.581 98.8441 97.9929 98.8441 97.3707C98.8356 96.544 98.6396 95.7855 98.256 95.0952C97.8725 94.4048 97.3441 93.8509 96.6708 93.4332C95.9975 93.0156 95.239 92.8068 94.3952 92.8068ZM118.327 115.358C116.418 115.358 114.718 115.03 113.226 114.374C111.743 113.709 110.571 112.797 109.711 111.638C108.858 110.47 108.419 109.124 108.394 107.598H113.968C114.002 108.237 114.211 108.8 114.594 109.286C114.986 109.763 115.506 110.134 116.154 110.398C116.801 110.662 117.53 110.794 118.34 110.794C119.184 110.794 119.929 110.645 120.577 110.347C121.225 110.048 121.732 109.635 122.098 109.107C122.465 108.578 122.648 107.969 122.648 107.278C122.648 106.58 122.452 105.962 122.06 105.425C121.676 104.879 121.123 104.453 120.398 104.146C119.682 103.839 118.83 103.686 117.841 103.686H115.4V99.6207H117.841C118.676 99.6207 119.414 99.4759 120.053 99.1861C120.701 98.8963 121.203 98.4957 121.561 97.9844C121.919 97.4645 122.098 96.8594 122.098 96.169C122.098 95.5128 121.941 94.9375 121.625 94.4432C121.319 93.9403 120.884 93.5483 120.321 93.267C119.767 92.9858 119.12 92.8452 118.378 92.8452C117.628 92.8452 116.942 92.9815 116.32 93.2543C115.698 93.5185 115.199 93.8977 114.824 94.392C114.449 94.8864 114.249 95.4659 114.223 96.1307H108.918C108.944 94.6222 109.374 93.2926 110.209 92.142C111.044 90.9915 112.169 90.0923 113.584 89.4446C115.007 88.7884 116.614 88.4602 118.404 88.4602C120.211 88.4602 121.792 88.7884 123.147 89.4446C124.502 90.1009 125.554 90.9872 126.304 92.1037C127.063 93.2116 127.438 94.456 127.429 95.8366C127.438 97.3026 126.982 98.5256 126.061 99.5057C125.15 100.486 123.961 101.108 122.495 101.372V101.577C124.421 101.824 125.887 102.493 126.892 103.584C127.907 104.666 128.409 106.021 128.401 107.649C128.409 109.141 127.979 110.466 127.11 111.625C126.249 112.784 125.06 113.696 123.543 114.361C122.026 115.026 120.287 115.358 118.327 115.358ZM142.147 115.358C140.178 115.358 138.427 115.038 136.893 114.399C135.367 113.751 134.17 112.869 133.3 111.753C132.431 110.636 131.996 109.371 131.996 107.956C131.996 106.865 132.244 105.864 132.738 104.952C133.241 104.031 133.923 103.268 134.783 102.663C135.644 102.05 136.607 101.658 137.673 101.487V101.308C136.275 101.027 135.141 100.349 134.272 99.2756C133.403 98.1932 132.968 96.9361 132.968 95.5043C132.968 94.1491 133.364 92.9432 134.157 91.8864C134.95 90.821 136.036 89.9858 137.417 89.3807C138.806 88.767 140.383 88.4602 142.147 88.4602C143.911 88.4602 145.484 88.767 146.864 89.3807C148.254 89.9943 149.344 90.8338 150.137 91.8991C150.93 92.956 151.33 94.1577 151.339 95.5043C151.33 96.9446 150.887 98.2017 150.009 99.2756C149.131 100.349 148.006 101.027 146.634 101.308V101.487C147.683 101.658 148.633 102.05 149.485 102.663C150.346 103.268 151.028 104.031 151.531 104.952C152.042 105.864 152.302 106.865 152.31 107.956C152.302 109.371 151.863 110.636 150.994 111.753C150.124 112.869 148.923 113.751 147.388 114.399C145.863 115.038 144.116 115.358 142.147 115.358ZM142.147 111.293C143.025 111.293 143.792 111.135 144.448 110.82C145.104 110.496 145.616 110.053 145.982 109.49C146.357 108.919 146.545 108.263 146.545 107.521C146.545 106.763 146.353 106.094 145.969 105.514C145.586 104.926 145.066 104.466 144.41 104.134C143.754 103.793 142.999 103.622 142.147 103.622C141.303 103.622 140.549 103.793 139.884 104.134C139.219 104.466 138.695 104.926 138.312 105.514C137.937 106.094 137.749 106.763 137.749 107.521C137.749 108.263 137.933 108.919 138.299 109.49C138.665 110.053 139.181 110.496 139.846 110.82C140.511 111.135 141.278 111.293 142.147 111.293ZM142.147 99.5952C142.88 99.5952 143.532 99.446 144.103 99.1477C144.674 98.8494 145.121 98.4361 145.445 97.9077C145.769 97.3793 145.931 96.7699 145.931 96.0795C145.931 95.3977 145.769 94.8011 145.445 94.2898C145.121 93.7699 144.678 93.3651 144.116 93.0753C143.553 92.777 142.897 92.6278 142.147 92.6278C141.406 92.6278 140.749 92.777 140.178 93.0753C139.607 93.3651 139.16 93.7699 138.836 94.2898C138.521 94.8011 138.363 95.3977 138.363 96.0795C138.363 96.7699 138.525 97.3793 138.849 97.9077C139.173 98.4361 139.62 98.8494 140.191 99.1477C140.762 99.446 141.414 99.5952 142.147 99.5952ZM165.411 101.909C165.411 105.088 164.985 108.011 164.132 110.679C163.289 113.347 161.993 115.818 160.246 118.094H155.043C155.708 117.25 156.326 116.219 156.897 115C157.468 113.781 157.966 112.452 158.392 111.011C158.819 109.562 159.151 108.062 159.39 106.511C159.628 104.96 159.748 103.426 159.748 101.909C159.748 99.8892 159.539 97.8523 159.121 95.7983C158.712 93.7358 158.15 91.8267 157.434 90.071C156.726 88.3068 155.929 86.8622 155.043 85.7372H160.246C161.993 88.0128 163.289 90.4844 164.132 93.152C164.985 95.8196 165.411 98.7386 165.411 101.909ZM183.197 99.7486V104.07H171.256V99.7486H183.197ZM198.052 115.575C195.853 115.567 193.961 115.026 192.376 113.952C190.799 112.878 189.585 111.322 188.732 109.286C187.888 107.249 187.471 104.798 187.479 101.935C187.479 99.0795 187.901 96.6463 188.745 94.6349C189.597 92.6236 190.812 91.0937 192.388 90.0455C193.974 88.9886 195.862 88.4602 198.052 88.4602C200.242 88.4602 202.126 88.9886 203.702 90.0455C205.288 91.1023 206.506 92.6364 207.359 94.6477C208.211 96.6506 208.633 99.0795 208.624 101.935C208.624 104.807 208.198 107.261 207.346 109.298C206.502 111.335 205.292 112.891 203.715 113.964C202.138 115.038 200.251 115.575 198.052 115.575ZM198.052 110.986C199.552 110.986 200.749 110.232 201.644 108.723C202.539 107.214 202.982 104.952 202.974 101.935C202.974 99.9489 202.769 98.2955 202.36 96.9744C201.96 95.6534 201.388 94.6605 200.647 93.9957C199.914 93.331 199.049 92.9986 198.052 92.9986C196.56 92.9986 195.367 93.7443 194.472 95.2358C193.577 96.7273 193.126 98.9602 193.117 101.935C193.117 103.946 193.317 105.625 193.718 106.972C194.127 108.31 194.702 109.315 195.444 109.989C196.185 110.653 197.055 110.986 198.052 110.986ZM222.837 115.575C220.638 115.567 218.746 115.026 217.161 113.952C215.584 112.878 214.37 111.322 213.517 109.286C212.674 107.249 212.256 104.798 212.265 101.935C212.265 99.0795 212.686 96.6463 213.53 94.6349C214.382 92.6236 215.597 91.0937 217.174 90.0455C218.759 88.9886 220.647 88.4602 222.837 88.4602C225.027 88.4602 226.911 88.9886 228.488 90.0455C230.073 91.1023 231.292 92.6364 232.144 94.6477C232.996 96.6506 233.418 99.0795 233.409 101.935C233.409 104.807 232.983 107.261 232.131 109.298C231.287 111.335 230.077 112.891 228.5 113.964C226.924 115.038 225.036 115.575 222.837 115.575ZM222.837 110.986C224.337 110.986 225.534 110.232 226.429 108.723C227.324 107.214 227.767 104.952 227.759 101.935C227.759 99.9489 227.554 98.2955 227.145 96.9744C226.745 95.6534 226.174 94.6605 225.432 93.9957C224.699 93.331 223.834 92.9986 222.837 92.9986C221.346 92.9986 220.152 93.7443 219.257 95.2358C218.363 96.7273 217.911 98.9602 217.902 101.935C217.902 103.946 218.103 105.625 218.503 106.972C218.912 108.31 219.488 109.315 220.229 109.989C220.971 110.653 221.84 110.986 222.837 110.986ZM247.405 115.358C246.058 115.349 244.759 115.124 243.506 114.68C242.261 114.237 241.145 113.517 240.156 112.52C239.168 111.523 238.384 110.202 237.804 108.557C237.233 106.912 236.947 104.892 236.947 102.497C236.956 100.298 237.207 98.3338 237.702 96.6037C238.205 94.8651 238.92 93.3906 239.849 92.1804C240.787 90.9702 241.908 90.0497 243.212 89.419C244.516 88.7798 245.977 88.4602 247.597 88.4602C249.344 88.4602 250.886 88.8011 252.224 89.483C253.563 90.1562 254.636 91.0724 255.446 92.2315C256.264 93.3906 256.759 94.6903 256.929 96.1307H251.47C251.257 95.2188 250.81 94.5028 250.128 93.983C249.446 93.4631 248.602 93.2031 247.597 93.2031C245.892 93.2031 244.597 93.9446 243.71 95.4276C242.832 96.9105 242.385 98.9261 242.368 101.474H242.547C242.939 100.699 243.467 100.038 244.132 99.4929C244.805 98.9389 245.568 98.517 246.42 98.2273C247.281 97.929 248.189 97.7798 249.143 97.7798C250.695 97.7798 252.075 98.1463 253.286 98.8793C254.496 99.6037 255.45 100.601 256.149 101.871C256.848 103.141 257.197 104.594 257.197 106.23C257.197 108.003 256.784 109.58 255.957 110.96C255.139 112.341 253.993 113.423 252.518 114.207C251.053 114.983 249.348 115.366 247.405 115.358ZM247.379 111.011C248.232 111.011 248.994 110.807 249.668 110.398C250.341 109.989 250.869 109.435 251.253 108.736C251.636 108.037 251.828 107.253 251.828 106.384C251.828 105.514 251.636 104.734 251.253 104.044C250.878 103.354 250.358 102.804 249.693 102.395C249.028 101.986 248.27 101.781 247.418 101.781C246.778 101.781 246.186 101.901 245.641 102.139C245.104 102.378 244.631 102.71 244.222 103.136C243.821 103.562 243.506 104.057 243.276 104.619C243.045 105.173 242.93 105.766 242.93 106.396C242.93 107.24 243.122 108.011 243.506 108.71C243.898 109.409 244.426 109.967 245.091 110.385C245.764 110.803 246.527 111.011 247.379 111.011ZM273.408 99.7486V104.07H261.467V99.7486H273.408ZM287.499 115.358C285.59 115.358 283.89 115.03 282.398 114.374C280.915 113.709 279.743 112.797 278.882 111.638C278.03 110.47 277.591 109.124 277.566 107.598H283.14C283.174 108.237 283.382 108.8 283.766 109.286C284.158 109.763 284.678 110.134 285.326 110.398C285.973 110.662 286.702 110.794 287.512 110.794C288.355 110.794 289.101 110.645 289.749 110.347C290.397 110.048 290.904 109.635 291.27 109.107C291.637 108.578 291.82 107.969 291.82 107.278C291.82 106.58 291.624 105.962 291.232 105.425C290.848 104.879 290.294 104.453 289.57 104.146C288.854 103.839 288.002 103.686 287.013 103.686H284.571V99.6207H287.013C287.848 99.6207 288.586 99.4759 289.225 99.1861C289.873 98.8963 290.375 98.4957 290.733 97.9844C291.091 97.4645 291.27 96.8594 291.27 96.169C291.27 95.5128 291.113 94.9375 290.797 94.4432C290.49 93.9403 290.056 93.5483 289.493 93.267C288.939 92.9858 288.292 92.8452 287.55 92.8452C286.8 92.8452 286.114 92.9815 285.492 93.2543C284.87 93.5185 284.371 93.8977 283.996 94.392C283.621 94.8864 283.421 95.4659 283.395 96.1307H278.09C278.115 94.6222 278.546 93.2926 279.381 92.142C280.216 90.9915 281.341 90.0923 282.756 89.4446C284.179 88.7884 285.786 88.4602 287.576 88.4602C289.382 88.4602 290.963 88.7884 292.319 89.4446C293.674 90.1009 294.726 90.9872 295.476 92.1037C296.235 93.2116 296.61 94.456 296.601 95.8366C296.61 97.3026 296.154 98.5256 295.233 99.5057C294.321 100.486 293.132 101.108 291.667 101.372V101.577C293.593 101.824 295.059 102.493 296.064 103.584C297.078 104.666 297.581 106.021 297.573 107.649C297.581 109.141 297.151 110.466 296.282 111.625C295.421 112.784 294.232 113.696 292.715 114.361C291.198 115.026 289.459 115.358 287.499 115.358ZM301.156 110.398V106.038L312.086 88.8182H315.844V94.8523H313.62L306.729 105.757V105.962H322.262V110.398H301.156ZM313.722 115V109.068L313.825 107.138V88.8182H319.015V115H313.722ZM338.236 99.7486V104.07H326.295V99.7486H338.236ZM354.216 88.8182V115H348.68V94.0724H348.527L342.531 97.831V92.9219L349.013 88.8182H354.216ZM360.042 110.398V106.038L370.973 88.8182H374.731V94.8523H372.507L365.616 105.757V105.962H381.149V110.398H360.042ZM372.609 115V109.068L372.711 107.138V88.8182H377.902V115H372.609ZM8.50533 203V183.364H25.6744V203H20.4712V187.646H13.6445V203H8.50533ZM43.6871 191.009V195.291H33.4343V191.009H43.6871ZM35.2241 183.364V203H30.021V183.364H35.2241ZM47.1005 183.364V203H41.9357V183.364H47.1005ZM63.56 190.088V194.409H51.6197V190.088H63.56ZM68.2006 203V183.364H76.5742C78.9947 183.364 80.908 183.824 82.3143 184.744C83.7205 185.665 84.4237 186.973 84.4237 188.669C84.4237 189.734 84.0273 190.621 83.2347 191.328C82.4421 192.036 81.3427 192.513 79.9364 192.76C81.1126 192.845 82.114 193.114 82.9407 193.565C83.7759 194.009 84.4109 194.584 84.8455 195.291C85.2887 195.999 85.5103 196.783 85.5103 197.643C85.5103 198.76 85.212 199.719 84.6154 200.52C84.0273 201.321 83.1623 201.935 82.0202 202.361C80.8867 202.787 79.5018 203 77.8654 203H68.2006ZM73.2759 198.922H77.8654C78.6239 198.922 79.2163 198.743 79.6424 198.385C80.0771 198.018 80.2944 197.52 80.2944 196.889C80.2944 196.19 80.0771 195.641 79.6424 195.24C79.2163 194.839 78.6239 194.639 77.8654 194.639H73.2759V198.922ZM73.2759 191.443H76.6893C77.2347 191.443 77.6992 191.366 78.0827 191.213C78.4748 191.051 78.7731 190.821 78.9776 190.523C79.1907 190.224 79.2972 189.871 79.2972 189.462C79.2972 188.857 79.0543 188.384 78.5685 188.043C78.0827 187.702 77.418 187.531 76.5742 187.531H73.2759V191.443ZM97.815 203.384C95.8036 203.384 94.0735 202.957 92.6246 202.105C91.1843 201.244 90.0763 200.051 89.3008 198.526C88.5337 197 88.1502 195.244 88.1502 193.259C88.1502 191.247 88.538 189.483 89.3136 187.966C90.0977 186.44 91.2099 185.251 92.6502 184.399C94.0906 183.538 95.8036 183.108 97.7894 183.108C99.5025 183.108 101.002 183.419 102.289 184.041C103.576 184.663 104.595 185.537 105.345 186.662C106.095 187.787 106.508 189.108 106.585 190.625H101.446C101.301 189.645 100.917 188.857 100.295 188.26C99.6815 187.655 98.8761 187.352 97.8789 187.352C97.0352 187.352 96.2979 187.582 95.6673 188.043C95.0451 188.494 94.5593 189.155 94.2099 190.024C93.8604 190.893 93.6857 191.946 93.6857 193.182C93.6857 194.435 93.8562 195.5 94.1971 196.378C94.5465 197.256 95.0366 197.925 95.6673 198.385C96.2979 198.845 97.0352 199.075 97.8789 199.075C98.5011 199.075 99.0593 198.947 99.5536 198.692C100.056 198.436 100.47 198.065 100.794 197.58C101.126 197.085 101.343 196.493 101.446 195.803H106.585C106.5 197.303 106.091 198.624 105.358 199.766C104.633 200.899 103.632 201.786 102.353 202.425C101.075 203.064 99.5621 203.384 97.815 203.384ZM127.826 176.46C129.172 176.46 130.468 176.686 131.712 177.138C132.965 177.589 134.081 178.31 135.061 179.298C136.05 180.287 136.83 181.599 137.401 183.236C137.98 184.864 138.275 186.862 138.283 189.232C138.283 191.456 138.032 193.442 137.529 195.189C137.034 196.928 136.323 198.406 135.394 199.625C134.465 200.844 133.344 201.773 132.032 202.412C130.719 203.043 129.253 203.358 127.634 203.358C125.887 203.358 124.344 203.021 123.006 202.348C121.668 201.666 120.59 200.741 119.772 199.574C118.962 198.398 118.472 197.077 118.301 195.611H123.76C123.973 196.565 124.421 197.307 125.103 197.835C125.784 198.355 126.628 198.615 127.634 198.615C129.338 198.615 130.634 197.874 131.52 196.391C132.407 194.899 132.854 192.858 132.863 190.267H132.684C132.292 191.034 131.763 191.695 131.098 192.249C130.434 192.794 129.671 193.216 128.81 193.514C127.958 193.812 127.05 193.962 126.087 193.962C124.544 193.962 123.168 193.599 121.958 192.875C120.748 192.151 119.793 191.153 119.094 189.884C118.395 188.614 118.046 187.165 118.046 185.537C118.037 183.781 118.442 182.217 119.26 180.845C120.078 179.473 121.221 178.399 122.686 177.624C124.161 176.839 125.874 176.452 127.826 176.46ZM127.864 180.807C127.003 180.807 126.236 181.011 125.563 181.42C124.898 181.83 124.37 182.379 123.978 183.07C123.594 183.76 123.407 184.531 123.415 185.384C123.415 186.244 123.603 187.02 123.978 187.71C124.361 188.392 124.881 188.937 125.537 189.347C126.202 189.747 126.961 189.947 127.813 189.947C128.452 189.947 129.044 189.828 129.59 189.589C130.135 189.351 130.608 189.023 131.009 188.605C131.418 188.179 131.738 187.689 131.968 187.135C132.198 186.581 132.313 185.993 132.313 185.371C132.304 184.544 132.108 183.786 131.725 183.095C131.341 182.405 130.813 181.851 130.14 181.433C129.466 181.016 128.708 180.807 127.864 180.807ZM145.353 199.957C144.509 199.957 143.784 199.659 143.179 199.062C142.583 198.466 142.284 197.741 142.284 196.889C142.284 196.054 142.583 195.338 143.179 194.741C143.784 194.145 144.509 193.847 145.353 193.847C146.171 193.847 146.887 194.145 147.5 194.741C148.114 195.338 148.421 196.054 148.421 196.889C148.421 197.452 148.276 197.967 147.986 198.436C147.705 198.896 147.334 199.267 146.874 199.548C146.414 199.821 145.907 199.957 145.353 199.957ZM145.353 187.109C144.509 187.109 143.784 186.811 143.179 186.214C142.583 185.618 142.284 184.893 142.284 184.041C142.284 183.206 142.583 182.494 143.179 181.906C143.784 181.31 144.509 181.011 145.353 181.011C146.171 181.011 146.887 181.31 147.5 181.906C148.114 182.494 148.421 183.206 148.421 184.041C148.421 184.612 148.276 185.132 147.986 185.601C147.705 186.061 147.334 186.428 146.874 186.7C146.414 186.973 145.907 187.109 145.353 187.109ZM163.107 203.575C160.908 203.567 159.016 203.026 157.43 201.952C155.854 200.878 154.639 199.322 153.787 197.286C152.943 195.249 152.526 192.798 152.534 189.935C152.534 187.08 152.956 184.646 153.8 182.635C154.652 180.624 155.866 179.094 157.443 178.045C159.028 176.989 160.916 176.46 163.107 176.46C165.297 176.46 167.18 176.989 168.757 178.045C170.342 179.102 171.561 180.636 172.413 182.648C173.266 184.651 173.688 187.08 173.679 189.935C173.679 192.807 173.253 195.261 172.401 197.298C171.557 199.335 170.347 200.891 168.77 201.964C167.193 203.038 165.305 203.575 163.107 203.575ZM163.107 198.986C164.607 198.986 165.804 198.232 166.699 196.723C167.594 195.214 168.037 192.952 168.028 189.935C168.028 187.949 167.824 186.295 167.415 184.974C167.014 183.653 166.443 182.661 165.702 181.996C164.969 181.331 164.104 180.999 163.107 180.999C161.615 180.999 160.422 181.744 159.527 183.236C158.632 184.727 158.18 186.96 158.172 189.935C158.172 191.946 158.372 193.625 158.773 194.972C159.182 196.31 159.757 197.315 160.499 197.989C161.24 198.653 162.109 198.986 163.107 198.986ZM187.892 203.575C185.693 203.567 183.801 203.026 182.216 201.952C180.639 200.878 179.424 199.322 178.572 197.286C177.728 195.249 177.311 192.798 177.319 189.935C177.319 187.08 177.741 184.646 178.585 182.635C179.437 180.624 180.652 179.094 182.228 178.045C183.814 176.989 185.701 176.46 187.892 176.46C190.082 176.46 191.966 176.989 193.542 178.045C195.127 179.102 196.346 180.636 197.199 182.648C198.051 184.651 198.473 187.08 198.464 189.935C198.464 192.807 198.038 195.261 197.186 197.298C196.342 199.335 195.132 200.891 193.555 201.964C191.978 203.038 190.091 203.575 187.892 203.575ZM187.892 198.986C189.392 198.986 190.589 198.232 191.484 196.723C192.379 195.214 192.822 192.952 192.814 189.935C192.814 187.949 192.609 186.295 192.2 184.974C191.799 183.653 191.228 182.661 190.487 181.996C189.754 181.331 188.889 180.999 187.892 180.999C186.4 180.999 185.207 181.744 184.312 183.236C183.417 184.727 182.966 186.96 182.957 189.935C182.957 191.946 183.157 193.625 183.558 194.972C183.967 196.31 184.542 197.315 185.284 197.989C186.025 198.653 186.895 198.986 187.892 198.986ZM214.697 187.749V192.07H202.756V187.749H214.697ZM218.548 203V199.011L227.868 190.382C228.66 189.615 229.325 188.925 229.862 188.311C230.407 187.697 230.821 187.097 231.102 186.509C231.383 185.912 231.524 185.268 231.524 184.578C231.524 183.811 231.349 183.151 231 182.597C230.65 182.034 230.173 181.604 229.568 181.305C228.963 180.999 228.277 180.845 227.51 180.845C226.708 180.845 226.01 181.007 225.413 181.331C224.816 181.655 224.356 182.119 224.032 182.724C223.708 183.33 223.547 184.05 223.547 184.885H218.292C218.292 183.172 218.68 181.685 219.456 180.423C220.231 179.162 221.318 178.186 222.716 177.496C224.113 176.805 225.724 176.46 227.548 176.46C229.423 176.46 231.055 176.793 232.444 177.457C233.842 178.114 234.929 179.026 235.704 180.193C236.48 181.361 236.868 182.699 236.868 184.207C236.868 185.196 236.672 186.172 236.279 187.135C235.896 188.098 235.21 189.168 234.221 190.344C233.233 191.511 231.839 192.913 230.041 194.55L226.218 198.295V198.474H237.213V203H218.548ZM252.614 176.818V203H247.079V182.072H246.925L240.93 185.831V180.922L247.411 176.818H252.614ZM262.071 199.957C261.228 199.957 260.503 199.659 259.898 199.062C259.301 198.466 259.003 197.741 259.003 196.889C259.003 196.054 259.301 195.338 259.898 194.741C260.503 194.145 261.228 193.847 262.071 193.847C262.89 193.847 263.605 194.145 264.219 194.741C264.833 195.338 265.14 196.054 265.14 196.889C265.14 197.452 264.995 197.967 264.705 198.436C264.424 198.896 264.053 199.267 263.593 199.548C263.132 199.821 262.625 199.957 262.071 199.957ZM262.071 187.109C261.228 187.109 260.503 186.811 259.898 186.214C259.301 185.618 259.003 184.893 259.003 184.041C259.003 183.206 259.301 182.494 259.898 181.906C260.503 181.31 261.228 181.011 262.071 181.011C262.89 181.011 263.605 181.31 264.219 181.906C264.833 182.494 265.14 183.206 265.14 184.041C265.14 184.612 264.995 185.132 264.705 185.601C264.424 186.061 264.053 186.428 263.593 186.7C263.132 186.973 262.625 187.109 262.071 187.109ZM279.825 203.575C277.626 203.567 275.734 203.026 274.149 201.952C272.572 200.878 271.358 199.322 270.506 197.286C269.662 195.249 269.244 192.798 269.253 189.935C269.253 187.08 269.675 184.646 270.518 182.635C271.371 180.624 272.585 179.094 274.162 178.045C275.747 176.989 277.635 176.46 279.825 176.46C282.016 176.46 283.899 176.989 285.476 178.045C287.061 179.102 288.28 180.636 289.132 182.648C289.984 184.651 290.406 187.08 290.398 189.935C290.398 192.807 289.972 195.261 289.119 197.298C288.276 199.335 287.065 200.891 285.489 201.964C283.912 203.038 282.024 203.575 279.825 203.575ZM279.825 198.986C281.325 198.986 282.523 198.232 283.418 196.723C284.313 195.214 284.756 192.952 284.747 189.935C284.747 187.949 284.543 186.295 284.134 184.974C283.733 183.653 283.162 182.661 282.42 181.996C281.688 181.331 280.822 180.999 279.825 180.999C278.334 180.999 277.141 181.744 276.246 183.236C275.351 184.727 274.899 186.96 274.891 189.935C274.891 191.946 275.091 193.625 275.491 194.972C275.901 196.31 276.476 197.315 277.217 197.989C277.959 198.653 278.828 198.986 279.825 198.986ZM304.61 203.575C302.412 203.567 300.52 203.026 298.934 201.952C297.358 200.878 296.143 199.322 295.291 197.286C294.447 195.249 294.029 192.798 294.038 189.935C294.038 187.08 294.46 184.646 295.304 182.635C296.156 180.624 297.37 179.094 298.947 178.045C300.532 176.989 302.42 176.46 304.61 176.46C306.801 176.46 308.684 176.989 310.261 178.045C311.846 179.102 313.065 180.636 313.917 182.648C314.77 184.651 315.191 187.08 315.183 189.935C315.183 192.807 314.757 195.261 313.904 197.298C313.061 199.335 311.85 200.891 310.274 201.964C308.697 203.038 306.809 203.575 304.61 203.575ZM304.61 198.986C306.11 198.986 307.308 198.232 308.203 196.723C309.098 195.214 309.541 192.952 309.532 189.935C309.532 187.949 309.328 186.295 308.919 184.974C308.518 183.653 307.947 182.661 307.206 181.996C306.473 181.331 305.608 180.999 304.61 180.999C303.119 180.999 301.926 181.744 301.031 183.236C300.136 184.727 299.684 186.96 299.676 189.935C299.676 191.946 299.876 193.625 300.277 194.972C300.686 196.31 301.261 197.315 302.002 197.989C302.744 198.653 303.613 198.986 304.61 198.986Z" fill="white"/>
</svg>
