<svg width="135" height="25" viewBox="0 0 135 25" fill="none" xmlns="http://www.w3.org/2000/svg">
<path d="M20.8821 0.727272L20.0185 5.81818H9.97301L6.97301 24H0.65483L4.51847 0.727272H20.8821ZM18.7827 24L19.5099 19.2727H20.0554C20.3963 19.2727 20.7145 19.1742 21.0099 18.9773C21.3054 18.7803 21.5819 18.4773 21.8395 18.0682C22.0971 17.6591 22.3319 17.1402 22.544 16.5114C22.7637 15.8826 22.9645 15.1364 23.1463 14.2727L24.6918 6.54545H39.0554L36.1463 24H30.2372L32.3736 11.2273H29.4645L28.419 15.9545C28.0933 17.4394 27.669 18.697 27.1463 19.7273C26.6312 20.7576 26.0365 21.5871 25.3622 22.2159C24.688 22.8371 23.9493 23.2917 23.1463 23.5795C22.3509 23.8598 21.5024 24 20.6009 24H18.7827ZM43.9702 24.2727C42.8641 24.2727 41.9134 24.0909 41.1179 23.7273C40.33 23.3561 39.7543 22.7955 39.3906 22.0455C39.0346 21.2879 38.955 20.3333 39.152 19.1818C39.3111 18.2273 39.6103 17.4129 40.0497 16.7386C40.4891 16.0644 41.0346 15.5114 41.6861 15.0795C42.3376 14.6477 43.0687 14.3182 43.8793 14.0909C44.6974 13.8561 45.5611 13.7045 46.4702 13.6364C47.455 13.5606 48.2543 13.4659 48.8679 13.3523C49.4815 13.2386 49.9399 13.0833 50.2429 12.8864C50.5459 12.6894 50.7277 12.4242 50.7884 12.0909V12.0455C50.8565 11.5909 50.7353 11.2424 50.4247 11C50.1217 10.7576 49.6974 10.6364 49.152 10.6364C48.5611 10.6364 48.0497 10.7652 47.6179 11.0227C47.1937 11.2803 46.902 11.6818 46.7429 12.2273H40.9702C41.2126 11.1667 41.7088 10.1894 42.4588 9.29545C43.2164 8.39394 44.2202 7.67424 45.4702 7.13636C46.7277 6.59091 48.2277 6.31818 49.9702 6.31818C51.2126 6.31818 52.3035 6.46591 53.2429 6.76136C54.1823 7.04924 54.9588 7.45455 55.5724 7.97727C56.1937 8.49242 56.6293 9.09848 56.8793 9.79545C57.1368 10.4848 57.1974 11.2348 57.0611 12.0455L55.0611 24H49.1974L49.6065 21.5455H49.4702C49.0156 22.197 48.5043 22.7235 47.9361 23.125C47.3755 23.5265 46.7618 23.8182 46.0952 24C45.4361 24.1818 44.7277 24.2727 43.9702 24.2727ZM46.6974 20.3182C47.1671 20.3182 47.6293 20.2197 48.0838 20.0227C48.5384 19.8258 48.9285 19.5417 49.2543 19.1705C49.58 18.7992 49.7884 18.3485 49.8793 17.8182L50.1065 16.3636C49.9399 16.4318 49.7543 16.4962 49.5497 16.5568C49.3527 16.6098 49.1444 16.6629 48.9247 16.7159C48.7126 16.7689 48.4853 16.8182 48.2429 16.8636C48.008 16.9091 47.7656 16.9545 47.5156 17C47.0156 17.0758 46.5952 17.2008 46.2543 17.375C45.9134 17.5417 45.6482 17.75 45.4588 18C45.2694 18.2424 45.152 18.5152 45.1065 18.8182C45.0384 19.2955 45.1482 19.6667 45.4361 19.9318C45.7315 20.1894 46.152 20.3182 46.6974 20.3182ZM58.1037 24L61.0128 6.54545H68.6491C70.9825 6.54545 72.7552 6.94318 73.9673 7.73864C75.1795 8.53409 75.6491 9.72727 75.3764 11.3182C75.2401 12.1818 74.7401 12.947 73.8764 13.6136C73.0128 14.2803 71.8461 14.7273 70.3764 14.9545C71.687 15.0152 72.7173 15.2576 73.4673 15.6818C74.2249 16.0985 74.7438 16.6212 75.0241 17.25C75.3045 17.8712 75.3916 18.5152 75.2855 19.1818C75.1113 20.2424 74.6757 21.1326 73.9787 21.8523C73.2817 22.5644 72.3423 23.1023 71.1605 23.4659C69.9787 23.822 68.5658 24 66.9219 24H58.1037ZM64.6491 19.5909H67.6491C68.1643 19.5909 68.5885 19.4697 68.9219 19.2273C69.2552 18.9848 69.4522 18.6515 69.5128 18.2273C69.5961 17.7879 69.509 17.4432 69.2514 17.1932C69.0014 16.9432 68.6188 16.8182 68.1037 16.8182H65.1037L64.6491 19.5909ZM65.6491 13.6364H67.6491C67.9749 13.6364 68.259 13.5871 68.5014 13.4886C68.7514 13.3826 68.956 13.2348 69.1151 13.0455C69.2741 12.8561 69.3764 12.6288 69.4219 12.3636C69.4825 11.9621 69.3726 11.6515 69.0923 11.4318C68.8196 11.2045 68.4143 11.0909 67.8764 11.0909H66.0582L65.6491 13.6364ZM91.2344 12.8636L90.4616 17.5455H81.6889L82.4616 12.8636H91.2344ZM85.7344 6.54545L82.8253 24H76.9162L79.8253 6.54545H85.7344ZM95.9616 6.54545L93.0526 24H87.1889L90.098 6.54545H95.9616ZM104.422 24.3182C102.528 24.3182 100.967 23.9432 99.7401 23.1932C98.5204 22.4356 97.6643 21.3826 97.1719 20.0341C96.6795 18.678 96.581 17.1061 96.8764 15.3182C97.1719 13.5303 97.7893 11.9621 98.7287 10.6136C99.6681 9.25758 100.876 8.20454 102.354 7.45454C103.831 6.69697 105.52 6.31818 107.422 6.31818C109.308 6.31818 110.861 6.69697 112.081 7.45454C113.308 8.20454 114.168 9.25758 114.661 10.6136C115.161 11.9621 115.263 13.5303 114.967 15.3182C114.672 17.1061 114.051 18.678 113.104 20.0341C112.157 21.3826 110.945 22.4356 109.467 23.1932C107.998 23.9432 106.316 24.3182 104.422 24.3182ZM105.195 19.6818C105.74 19.6818 106.236 19.5038 106.683 19.1477C107.138 18.7917 107.524 18.2841 107.842 17.625C108.168 16.9659 108.407 16.1818 108.558 15.2727C108.71 14.3561 108.732 13.572 108.626 12.9205C108.52 12.2614 108.301 11.7538 107.967 11.3977C107.634 11.0417 107.195 10.8636 106.649 10.8636C106.104 10.8636 105.604 11.0417 105.149 11.3977C104.695 11.7538 104.308 12.2614 103.99 12.9205C103.672 13.572 103.437 14.3561 103.286 15.2727C103.134 16.1818 103.107 16.9659 103.206 17.625C103.312 18.2841 103.532 18.7917 103.865 19.1477C104.206 19.5038 104.649 19.6818 105.195 19.6818ZM124.376 24.3182C122.513 24.3182 120.967 23.9621 119.74 23.25C118.513 22.5303 117.649 21.5 117.149 20.1591C116.649 18.8106 116.558 17.197 116.876 15.3182C117.179 13.5152 117.804 11.9394 118.751 10.5909C119.706 9.24242 120.907 8.19318 122.354 7.44318C123.808 6.69318 125.437 6.31818 127.24 6.31818C128.558 6.31818 129.714 6.52273 130.706 6.93182C131.706 7.34091 132.52 7.93561 133.149 8.71591C133.778 9.49621 134.202 10.4394 134.422 11.5455C134.649 12.6439 134.649 13.8864 134.422 15.2727L134.195 16.7273H118.604L119.149 13.2727H128.967C129.043 12.7727 128.994 12.3333 128.82 11.9545C128.653 11.5682 128.384 11.2689 128.013 11.0568C127.649 10.8371 127.21 10.7273 126.695 10.7273C126.179 10.7273 125.695 10.8371 125.24 11.0568C124.793 11.2765 124.411 11.5833 124.092 11.9773C123.782 12.3712 123.573 12.8333 123.467 13.3636L122.786 17C122.695 17.5606 122.729 18.0606 122.888 18.5C123.047 18.9394 123.323 19.2841 123.717 19.5341C124.111 19.7841 124.619 19.9091 125.24 19.9091C125.664 19.9091 126.066 19.8523 126.445 19.7386C126.831 19.6174 127.172 19.4432 127.467 19.2159C127.77 18.9811 128.013 18.697 128.195 18.3636H133.922C133.513 19.5758 132.865 20.6288 131.979 21.5227C131.1 22.4091 130.017 23.0985 128.729 23.5909C127.448 24.0758 125.998 24.3182 124.376 24.3182Z" fill="white"/>
</svg>
