<svg width="88" height="25" viewBox="0 0 88 25" fill="none" xmlns="http://www.w3.org/2000/svg">
<path d="M23.2827 12.7727C22.8584 15.303 22.0175 17.4242 20.7599 19.1364C19.5024 20.8485 17.9759 22.1402 16.1804 23.0114C14.3849 23.8826 12.4645 24.3182 10.419 24.3182C8.23722 24.3182 6.34328 23.8447 4.73722 22.8977C3.13116 21.9508 1.9607 20.5644 1.22585 18.7386C0.491004 16.9129 0.343277 14.6818 0.78267 12.0455C1.19176 9.51515 2.02509 7.38636 3.28267 5.65909C4.54025 3.93182 6.07434 2.625 7.88494 1.73864C9.69555 0.852272 11.6312 0.40909 13.6918 0.40909C15.8584 0.40909 17.741 0.886363 19.3395 1.84091C20.9456 2.79545 22.1122 4.19318 22.8395 6.03409C23.5743 7.875 23.7221 10.1212 23.2827 12.7727ZM16.919 12.0455C17.1312 10.7121 17.1463 9.59091 16.9645 8.68182C16.7827 7.76515 16.4001 7.07576 15.8168 6.61364C15.2334 6.14394 14.4493 5.90909 13.4645 5.90909C12.3433 5.90909 11.3509 6.18182 10.4872 6.72727C9.62358 7.27273 8.90767 8.05682 8.33949 9.07955C7.77131 10.1023 7.37358 11.3333 7.14631 12.7727C6.90388 14.1212 6.88116 15.2424 7.07812 16.1364C7.28267 17.0303 7.68419 17.7008 8.28267 18.1477C8.88873 18.5947 9.67661 18.8182 10.6463 18.8182C11.7524 18.8182 12.7296 18.553 13.5781 18.0227C14.4342 17.4924 15.1425 16.7235 15.7031 15.7159C16.2713 14.7083 16.6766 13.4848 16.919 12.0455ZM45.1719 12.8636L44.3991 17.5455H35.6264L36.3991 12.8636H45.1719ZM39.6719 6.54545L36.7628 24H30.8537L33.7628 6.54545H39.6719ZM49.8991 6.54545L46.9901 24H41.1264L44.0355 6.54545H49.8991ZM54.8139 24.2727C53.7079 24.2727 52.7571 24.0909 51.9616 23.7273C51.1738 23.3561 50.598 22.7955 50.2344 22.0455C49.8783 21.2879 49.7988 20.3333 49.9957 19.1818C50.1548 18.2273 50.4541 17.4129 50.8935 16.7386C51.3329 16.0644 51.8783 15.5114 52.5298 15.0795C53.1813 14.6477 53.9124 14.3182 54.723 14.0909C55.5412 13.8561 56.4048 13.7045 57.3139 13.6364C58.2988 13.5606 59.098 13.4659 59.7116 13.3523C60.3253 13.2386 60.7836 13.0833 61.0866 12.8864C61.3897 12.6894 61.5715 12.4242 61.6321 12.0909V12.0455C61.7003 11.5909 61.5791 11.2424 61.2685 11C60.9654 10.7576 60.5412 10.6364 59.9957 10.6364C59.4048 10.6364 58.8935 10.7652 58.4616 11.0227C58.0374 11.2803 57.7457 11.6818 57.5866 12.2273H51.8139C52.0563 11.1667 52.5526 10.1894 53.3026 9.29545C54.0601 8.39394 55.0639 7.67424 56.3139 7.13636C57.5715 6.59091 59.0715 6.31818 60.8139 6.31818C62.0563 6.31818 63.1473 6.46591 64.0866 6.76136C65.026 7.04924 65.8026 7.45455 66.4162 7.97727C67.0374 8.49242 67.473 9.09848 67.723 9.79545C67.9806 10.4848 68.0412 11.2348 67.9048 12.0455L65.9048 24H60.0412L60.4503 21.5455H60.3139C59.8594 22.197 59.348 22.7235 58.7798 23.125C58.2192 23.5265 57.6056 23.8182 56.9389 24C56.2798 24.1818 55.5715 24.2727 54.8139 24.2727ZM57.5412 20.3182C58.0109 20.3182 58.473 20.2197 58.9276 20.0227C59.3821 19.8258 59.7723 19.5417 60.098 19.1705C60.4238 18.7992 60.6321 18.3485 60.723 17.8182L60.9503 16.3636C60.7836 16.4318 60.598 16.4962 60.3935 16.5568C60.1965 16.6098 59.9882 16.6629 59.7685 16.7159C59.5563 16.7689 59.3291 16.8182 59.0866 16.8636C58.8518 16.9091 58.6094 16.9545 58.3594 17C57.8594 17.0758 57.4389 17.2008 57.098 17.375C56.7571 17.5417 56.492 17.75 56.3026 18C56.1132 18.2424 55.9957 18.5152 55.9503 18.8182C55.8821 19.2955 55.992 19.6667 56.2798 19.9318C56.5753 20.1894 56.9957 20.3182 57.5412 20.3182ZM77.2656 24.3182C75.3717 24.3182 73.8111 23.9432 72.5838 23.1932C71.3565 22.4356 70.4967 21.3826 70.0043 20.0341C69.5118 18.678 69.4171 17.1061 69.7202 15.3182C70.008 13.5303 70.6217 11.9621 71.5611 10.6136C72.508 9.25758 73.7202 8.20454 75.1974 7.45454C76.6823 6.69697 78.3717 6.31818 80.2656 6.31818C81.9777 6.31818 83.4058 6.62879 84.5497 7.25C85.7012 7.86364 86.5232 8.73485 87.0156 9.86364C87.5156 10.9848 87.6444 12.303 87.402 13.8182H81.5838C81.652 12.9091 81.5043 12.2121 81.1406 11.7273C80.7846 11.2424 80.2656 11 79.5838 11C79.0232 11 78.508 11.1591 78.0384 11.4773C77.5762 11.7879 77.1785 12.2614 76.8452 12.8977C76.5194 13.5265 76.2808 14.3182 76.1293 15.2727C75.9777 16.2273 75.9588 17.0227 76.0724 17.6591C76.1937 18.2879 76.4285 18.7614 76.777 19.0795C77.133 19.3902 77.5838 19.5455 78.1293 19.5455C78.599 19.5455 79.0308 19.4394 79.4247 19.2273C79.8262 19.0076 80.1709 18.6894 80.4588 18.2727C80.7543 17.8485 80.9777 17.3333 81.1293 16.7273H86.9474C86.6596 18.2727 86.08 19.6136 85.2088 20.75C84.3376 21.8864 83.2277 22.7652 81.8793 23.3864C80.5308 24.0076 78.9929 24.3182 77.2656 24.3182Z" fill="white"/>
</svg>
