<svg width="135" height="25" viewBox="0 0 135 25" fill="none" xmlns="http://www.w3.org/2000/svg">
<path d="M23.767 12.7727C23.3428 15.303 22.5019 17.4242 21.2443 19.1364C19.9867 20.8485 18.4602 22.1402 16.6648 23.0114C14.8693 23.8826 12.9489 24.3182 10.9034 24.3182C8.72159 24.3182 6.82765 23.8447 5.22159 22.8977C3.61553 21.9508 2.44508 20.5644 1.71023 18.7386C0.975379 16.9129 0.827652 14.6818 1.26705 12.0455C1.67614 9.51515 2.50947 7.38636 3.76705 5.65909C5.02462 3.93182 6.55871 2.625 8.36932 1.73864C10.1799 0.852272 12.1155 0.40909 14.1761 0.40909C16.3428 0.40909 18.2254 0.886363 19.8239 1.84091C21.4299 2.79545 22.5966 4.19318 23.3239 6.03409C24.0587 7.875 24.2064 10.1212 23.767 12.7727ZM17.4034 12.0455C17.6155 10.7121 17.6307 9.59091 17.4489 8.68182C17.267 7.76515 16.8845 7.07576 16.3011 6.61364C15.7178 6.14394 14.9337 5.90909 13.9489 5.90909C12.8277 5.90909 11.8352 6.18182 10.9716 6.72727C10.108 7.27273 9.39205 8.05682 8.82386 9.07955C8.25568 10.1023 7.85795 11.3333 7.63068 12.7727C7.38826 14.1212 7.36553 15.2424 7.5625 16.1364C7.76705 17.0303 8.16856 17.7008 8.76705 18.1477C9.37311 18.5947 10.161 18.8182 11.1307 18.8182C12.2367 18.8182 13.214 18.553 14.0625 18.0227C14.9186 17.4924 15.6269 16.7235 16.1875 15.7159C16.7557 14.7083 17.161 13.4848 17.4034 12.0455ZM26.1903 11.2273L26.9631 6.54545H43.8722L43.0994 11.2273H37.554L35.4176 24H29.5085L31.6449 11.2273H26.1903ZM43.4062 18.7273H49.3153C49.2396 19.1667 49.3684 19.5265 49.7017 19.8068C50.035 20.0871 50.4972 20.2273 51.0881 20.2273C51.6941 20.2273 52.2093 20.072 52.6335 19.7614C53.0578 19.4432 53.3153 19.0379 53.4062 18.5455C53.4669 18.2348 53.4366 17.9621 53.3153 17.7273C53.1941 17.4848 53.0047 17.2955 52.7472 17.1591C52.4896 17.0227 52.179 16.9545 51.8153 16.9545H49.6335L50.2699 13.2727H52.4517C52.9744 13.2727 53.4328 13.1477 53.8267 12.8977C54.2206 12.6402 54.4441 12.3106 54.4972 11.9091C54.5578 11.4545 54.4441 11.0833 54.1562 10.7955C53.8759 10.5076 53.4744 10.3636 52.9517 10.3636C52.4441 10.3636 52.0009 10.4811 51.6222 10.7159C51.2509 10.9508 51.0275 11.2576 50.9517 11.6364H45.0426C45.2396 10.5152 45.7358 9.56061 46.5312 8.77273C47.3343 7.97727 48.3305 7.37121 49.5199 6.95454C50.7169 6.5303 51.9972 6.31818 53.3608 6.31818C54.9214 6.31818 56.232 6.50758 57.2926 6.88636C58.3532 7.26515 59.1222 7.82197 59.5994 8.55682C60.0843 9.29167 60.232 10.197 60.0426 11.2727C59.8911 12.1591 59.4403 12.9205 58.6903 13.5568C57.9403 14.1856 56.9214 14.6364 55.6335 14.9091L55.5881 15.0909C56.3305 15.1288 56.9972 15.3068 57.5881 15.625C58.1866 15.9432 58.6373 16.3977 58.9403 16.9886C59.2434 17.5795 59.3229 18.3106 59.179 19.1818C58.9972 20.2727 58.5047 21.2008 57.7017 21.9659C56.8987 22.7311 55.8684 23.3144 54.6108 23.7159C53.3532 24.1174 51.9517 24.3182 50.4062 24.3182C48.9062 24.3182 47.5994 24.1174 46.4858 23.7159C45.3797 23.3068 44.5464 22.6894 43.9858 21.8636C43.4328 21.0303 43.2396 19.9848 43.4062 18.7273ZM66.5057 11.2727H71.8693C74.3466 11.2727 76.2064 11.8485 77.4489 13C78.6913 14.1439 79.1496 15.7197 78.8239 17.7273C78.6042 19.0227 78.089 20.1402 77.2784 21.0795C76.4754 22.0189 75.4337 22.7424 74.1534 23.25C72.8731 23.75 71.3996 24 69.733 24H60.8693L63.7784 6.54545H69.6875L67.5511 19.3182H70.5057C71.1572 19.3182 71.714 19.1667 72.1761 18.8636C72.6458 18.553 72.9223 18.1591 73.0057 17.6818C73.089 17.1742 72.9489 16.7614 72.5852 16.4432C72.2216 16.1174 71.7254 15.9545 71.0966 15.9545H65.733L66.5057 11.2727ZM78.9602 24L81.8693 6.54545H88.142L85.233 24H78.9602ZM88.4631 24L91.3722 6.54545H99.0085C101.342 6.54545 103.115 6.94318 104.327 7.73864C105.539 8.53409 106.009 9.72727 105.736 11.3182C105.599 12.1818 105.099 12.947 104.236 13.6136C103.372 14.2803 102.205 14.7273 100.736 14.9545C102.046 15.0152 103.077 15.2576 103.827 15.6818C104.584 16.0985 105.103 16.6212 105.384 17.25C105.664 17.8712 105.751 18.5152 105.645 19.1818C105.471 20.2424 105.035 21.1326 104.338 21.8523C103.641 22.5644 102.702 23.1023 101.52 23.4659C100.338 23.822 98.9252 24 97.2812 24H88.4631ZM95.0085 19.5909H98.0085C98.5237 19.5909 98.9479 19.4697 99.2812 19.2273C99.6146 18.9848 99.8116 18.6515 99.8722 18.2273C99.9555 17.7879 99.8684 17.4432 99.6108 17.1932C99.3608 16.9432 98.9782 16.8182 98.4631 16.8182H95.4631L95.0085 19.5909ZM96.0085 13.6364H98.0085C98.3343 13.6364 98.6184 13.5871 98.8608 13.4886C99.1108 13.3826 99.3153 13.2348 99.4744 13.0455C99.6335 12.8561 99.7358 12.6288 99.7812 12.3636C99.8419 11.9621 99.732 11.6515 99.4517 11.4318C99.179 11.2045 98.7737 11.0909 98.2358 11.0909H96.4176L96.0085 13.6364ZM112.912 11.2727H118.276C120.753 11.2727 122.613 11.8485 123.855 13C125.098 14.1439 125.556 15.7197 125.23 17.7273C125.01 19.0227 124.495 20.1402 123.685 21.0795C122.882 22.0189 121.84 22.7424 120.56 23.25C119.279 23.75 117.806 24 116.139 24H107.276L110.185 6.54545H116.094L113.957 19.3182H116.912C117.563 19.3182 118.12 19.1667 118.582 18.8636C119.052 18.553 119.329 18.1591 119.412 17.6818C119.495 17.1742 119.355 16.7614 118.991 16.4432C118.628 16.1174 118.132 15.9545 117.503 15.9545H112.139L112.912 11.2727ZM125.366 24L128.276 6.54545H134.548L131.639 24H125.366Z" fill="white"/>
</svg>
