<svg width="170" height="32" viewBox="0 0 170 32" fill="none" xmlns="http://www.w3.org/2000/svg">
<path d="M24.7571 1.72727L20.8935 25H14.6662L17.7116 6.72727H9.84801L6.80256 25H0.575284L4.43892 1.72727H24.7571ZM29.8452 25.2727C28.7391 25.2727 27.7884 25.0909 26.9929 24.7273C26.205 24.3561 25.6293 23.7955 25.2656 23.0455C24.9096 22.2879 24.83 21.3333 25.027 20.1818C25.1861 19.2273 25.4853 18.4129 25.9247 17.7386C26.3641 17.0644 26.9096 16.5114 27.5611 16.0795C28.2126 15.6477 28.9437 15.3182 29.7543 15.0909C30.5724 14.8561 31.4361 14.7045 32.3452 14.6364C33.33 14.5606 34.1293 14.4659 34.7429 14.3523C35.3565 14.2386 35.8149 14.0833 36.1179 13.8864C36.4209 13.6894 36.6027 13.4242 36.6634 13.0909V13.0455C36.7315 12.5909 36.6103 12.2424 36.2997 12C35.9967 11.7576 35.5724 11.6364 35.027 11.6364C34.4361 11.6364 33.9247 11.7652 33.4929 12.0227C33.0687 12.2803 32.777 12.6818 32.6179 13.2273H26.8452C27.0876 12.1667 27.5838 11.1894 28.3338 10.2955C29.0914 9.39394 30.0952 8.67424 31.3452 8.13636C32.6027 7.59091 34.1027 7.31818 35.8452 7.31818C37.0876 7.31818 38.1785 7.46591 39.1179 7.76136C40.0573 8.04924 40.8338 8.45455 41.4474 8.97727C42.0687 9.49242 42.5043 10.0985 42.7543 10.7955C43.0118 11.4848 43.0724 12.2348 42.9361 13.0455L40.9361 25H35.0724L35.4815 22.5455H35.3452C34.8906 23.197 34.3793 23.7235 33.8111 24.125C33.2505 24.5265 32.6368 24.8182 31.9702 25C31.3111 25.1818 30.6027 25.2727 29.8452 25.2727ZM32.5724 21.3182C33.0421 21.3182 33.5043 21.2197 33.9588 21.0227C34.4134 20.8258 34.8035 20.5417 35.1293 20.1705C35.455 19.7992 35.6634 19.3485 35.7543 18.8182L35.9815 17.3636C35.8149 17.4318 35.6293 17.4962 35.4247 17.5568C35.2277 17.6098 35.0194 17.6629 34.7997 17.7159C34.5876 17.7689 34.3603 17.8182 34.1179 17.8636C33.883 17.9091 33.6406 17.9545 33.3906 18C32.8906 18.0758 32.4702 18.2008 32.1293 18.375C31.7884 18.5417 31.5232 18.75 31.3338 19C31.1444 19.2424 31.027 19.5152 30.9815 19.8182C30.9134 20.2955 31.0232 20.6667 31.3111 20.9318C31.6065 21.1894 32.027 21.3182 32.5724 21.3182ZM42.8878 31.5455L46.9105 7.54545H53.1378L52.6378 10.5909H52.7741C53.0923 10 53.509 9.45833 54.0241 8.96591C54.5469 8.46591 55.1605 8.06818 55.8651 7.77273C56.5772 7.4697 57.3651 7.31818 58.2287 7.31818C59.3802 7.31818 60.4219 7.625 61.3537 8.23864C62.2855 8.85227 62.9711 9.81818 63.4105 11.1364C63.8499 12.4545 63.8954 14.1667 63.5469 16.2727C63.2135 18.2879 62.6188 19.9583 61.7628 21.2841C60.9143 22.6098 59.9143 23.5985 58.7628 24.25C57.6188 24.9015 56.4257 25.2273 55.1832 25.2273C54.3651 25.2273 53.6567 25.0947 53.0582 24.8295C52.4598 24.5568 51.9787 24.1894 51.6151 23.7273C51.2514 23.2576 51.0014 22.7273 50.8651 22.1364H50.7287L49.1832 31.5455H42.8878ZM51.5923 16.2727C51.456 17.1212 51.4446 17.8561 51.5582 18.4773C51.6795 19.0909 51.9181 19.5682 52.2741 19.9091C52.6378 20.2424 53.1075 20.4091 53.6832 20.4091C54.259 20.4091 54.7741 20.2462 55.2287 19.9205C55.6832 19.5871 56.0696 19.1136 56.3878 18.5C56.706 17.8788 56.9408 17.1364 57.0923 16.2727C57.2287 15.4091 57.2401 14.6705 57.1264 14.0568C57.0128 13.4356 56.7817 12.9621 56.4332 12.6364C56.0848 12.303 55.6226 12.1364 55.0469 12.1364C54.4711 12.1364 53.9446 12.303 53.4673 12.6364C52.9976 12.9621 52.5999 13.4356 52.2741 14.0568C51.956 14.6705 51.7287 15.4091 51.5923 16.2727ZM65.5185 12.2273L66.2912 7.54545H83.2003L82.4276 12.2273H76.8821L74.7457 25H68.8366L70.973 12.2273H65.5185ZM96.9844 13.8636L96.2116 18.5455H87.4389L88.2116 13.8636H96.9844ZM91.4844 7.54545L88.5753 25H82.6662L85.5753 7.54545H91.4844ZM101.712 7.54545L98.8026 25H92.9389L95.848 7.54545H101.712ZM110.126 25.3182C108.263 25.3182 106.717 24.9621 105.49 24.25C104.263 23.5303 103.399 22.5 102.899 21.1591C102.399 19.8106 102.308 18.197 102.626 16.3182C102.929 14.5152 103.554 12.9394 104.501 11.5909C105.456 10.2424 106.657 9.19318 108.104 8.44318C109.558 7.69318 111.187 7.31818 112.99 7.31818C114.308 7.31818 115.464 7.52273 116.456 7.93182C117.456 8.34091 118.27 8.93561 118.899 9.71591C119.528 10.4962 119.952 11.4394 120.172 12.5455C120.399 13.6439 120.399 14.8864 120.172 16.2727L119.945 17.7273H104.354L104.899 14.2727H114.717C114.793 13.7727 114.744 13.3333 114.57 12.9545C114.403 12.5682 114.134 12.2689 113.763 12.0568C113.399 11.8371 112.96 11.7273 112.445 11.7273C111.929 11.7273 111.445 11.8371 110.99 12.0568C110.543 12.2765 110.161 12.5833 109.842 12.9773C109.532 13.3712 109.323 13.8333 109.217 14.3636L108.536 18C108.445 18.5606 108.479 19.0606 108.638 19.5C108.797 19.9394 109.073 20.2841 109.467 20.5341C109.861 20.7841 110.369 20.9091 110.99 20.9091C111.414 20.9091 111.816 20.8523 112.195 20.7386C112.581 20.6174 112.922 20.4432 113.217 20.2159C113.52 19.9811 113.763 19.697 113.945 19.3636H119.672C119.263 20.5758 118.615 21.6288 117.729 22.5227C116.85 23.4091 115.767 24.0985 114.479 24.5909C113.198 25.0758 111.748 25.3182 110.126 25.3182ZM109.945 5.5C109.081 5.5 108.392 5.20455 107.876 4.61364C107.361 4.02273 107.172 3.31818 107.308 2.5C107.422 1.86364 107.748 1.32576 108.286 0.886362C108.831 0.446969 109.445 0.227272 110.126 0.227272C110.967 0.227272 111.634 0.522727 112.126 1.11364C112.626 1.70455 112.808 2.40909 112.672 3.22727C112.581 3.86364 112.267 4.40151 111.729 4.84091C111.198 5.2803 110.604 5.5 109.945 5.5ZM117.172 5.5C116.308 5.5 115.619 5.20455 115.104 4.61364C114.589 4.02273 114.399 3.31818 114.536 2.5C114.649 1.86364 114.975 1.32576 115.513 0.886362C116.058 0.446969 116.672 0.227272 117.354 0.227272C118.195 0.227272 118.861 0.522727 119.354 1.11364C119.854 1.70455 120.036 2.40909 119.899 3.22727C119.808 3.86364 119.494 4.40151 118.956 4.84091C118.426 5.2803 117.831 5.5 117.172 5.5ZM120.232 31.5455L124.254 7.54545H130.482L129.982 10.5909H130.118C130.436 10 130.853 9.45833 131.368 8.96591C131.891 8.46591 132.504 8.06818 133.209 7.77273C133.921 7.4697 134.709 7.31818 135.572 7.31818C136.724 7.31818 137.766 7.625 138.697 8.23864C139.629 8.85227 140.315 9.81818 140.754 11.1364C141.194 12.4545 141.239 14.1667 140.891 16.2727C140.557 18.2879 139.963 19.9583 139.107 21.2841C138.258 22.6098 137.258 23.5985 136.107 24.25C134.963 24.9015 133.769 25.2273 132.527 25.2273C131.709 25.2273 131 25.0947 130.402 24.8295C129.804 24.5568 129.322 24.1894 128.959 23.7273C128.595 23.2576 128.345 22.7273 128.209 22.1364H128.072L126.527 31.5455H120.232ZM128.936 16.2727C128.8 17.1212 128.788 17.8561 128.902 18.4773C129.023 19.0909 129.262 19.5682 129.618 19.9091C129.982 20.2424 130.451 20.4091 131.027 20.4091C131.603 20.4091 132.118 20.2462 132.572 19.9205C133.027 19.5871 133.413 19.1136 133.732 18.5C134.05 17.8788 134.285 17.1364 134.436 16.2727C134.572 15.4091 134.584 14.6705 134.47 14.0568C134.357 13.4356 134.125 12.9621 133.777 12.6364C133.429 12.303 132.966 12.1364 132.391 12.1364C131.815 12.1364 131.288 12.303 130.811 12.6364C130.341 12.9621 129.944 13.4356 129.618 14.0568C129.3 14.6705 129.072 15.4091 128.936 16.2727ZM147.74 12.2727H153.104C155.581 12.2727 157.441 12.8485 158.683 14C159.926 15.1439 160.384 16.7197 160.058 18.7273C159.839 20.0227 159.323 21.1402 158.513 22.0795C157.71 23.0189 156.668 23.7424 155.388 24.25C154.107 24.75 152.634 25 150.967 25H142.104L145.013 7.54545H150.922L148.786 20.3182H151.74C152.392 20.3182 152.948 20.1667 153.411 19.8636C153.88 19.553 154.157 19.1591 154.24 18.6818C154.323 18.1742 154.183 17.7614 153.82 17.4432C153.456 17.1174 152.96 16.9545 152.331 16.9545H146.967L147.74 12.2727ZM160.195 25L163.104 7.54545H169.376L166.467 25H160.195Z" fill="white"/>
</svg>
