<svg width="224" height="31" viewBox="0 0 224 31" fill="none" xmlns="http://www.w3.org/2000/svg">
<path d="M24.2884 0.727272L20.4247 24H14.1974L17.2429 5.72727H9.37926L6.33381 24H0.106534L3.97017 0.727272H24.2884ZM32.9219 24.3182C31.0279 24.3182 29.4673 23.9432 28.2401 23.1932C27.0204 22.4356 26.1643 21.3826 25.6719 20.0341C25.1795 18.678 25.081 17.1061 25.3764 15.3182C25.6719 13.5303 26.2893 11.9621 27.2287 10.6136C28.1681 9.25758 29.3764 8.20454 30.8537 7.45454C32.331 6.69697 34.0204 6.31818 35.9219 6.31818C37.8082 6.31818 39.3613 6.69697 40.581 7.45454C41.8082 8.20454 42.6681 9.25758 43.1605 10.6136C43.6605 11.9621 43.7628 13.5303 43.4673 15.3182C43.1719 17.1061 42.5507 18.678 41.6037 20.0341C40.6567 21.3826 39.4446 22.4356 37.9673 23.1932C36.4976 23.9432 34.8158 24.3182 32.9219 24.3182ZM33.6946 19.6818C34.2401 19.6818 34.7363 19.5038 35.1832 19.1477C35.6378 18.7917 36.0241 18.2841 36.3423 17.625C36.6681 16.9659 36.9067 16.1818 37.0582 15.2727C37.2098 14.3561 37.2325 13.572 37.1264 12.9205C37.0204 12.2614 36.8007 11.7538 36.4673 11.3977C36.134 11.0417 35.6946 10.8636 35.1491 10.8636C34.6037 10.8636 34.1037 11.0417 33.6491 11.3977C33.1946 11.7538 32.8082 12.2614 32.4901 12.9205C32.1719 13.572 31.937 14.3561 31.7855 15.2727C31.634 16.1818 31.6075 16.9659 31.706 17.625C31.812 18.2841 32.0317 18.7917 32.3651 19.1477C32.706 19.5038 33.1491 19.6818 33.6946 19.6818ZM44.6037 24L47.5128 6.54545H53.7855L52.7401 12.7727H53.831L58.6037 6.54545H65.7855L58.7401 15.3636L62.9219 24H55.6491L53.1946 18.5909H51.7855L50.8764 24H44.6037ZM67.5895 30.5455C66.8622 30.5455 66.1842 30.4886 65.5554 30.375C64.9266 30.2689 64.3774 30.1212 63.9077 29.9318L66.0213 25.4773C66.5062 25.6591 66.9531 25.7765 67.3622 25.8295C67.7789 25.8826 68.1463 25.8523 68.4645 25.7386C68.7827 25.625 69.044 25.4091 69.2486 25.0909L69.4531 24.7727L66.3395 6.54545H72.6577L73.4531 18.6364H73.6349L78.5213 6.54545H85.3395L75.8395 25.4545C75.3546 26.4167 74.7486 27.2803 74.0213 28.0455C73.3016 28.8182 72.4152 29.428 71.3622 29.875C70.3092 30.322 69.0516 30.5455 67.5895 30.5455ZM84.2599 24L87.169 6.54545H103.442L100.533 24H94.6236L96.7599 11.2273H92.2145L90.0781 24H84.2599ZM108.533 24.2727C107.427 24.2727 106.476 24.0909 105.68 23.7273C104.893 23.3561 104.317 22.7955 103.953 22.0455C103.597 21.2879 103.518 20.3333 103.714 19.1818C103.874 18.2273 104.173 17.4129 104.612 16.7386C105.052 16.0644 105.597 15.5114 106.249 15.0795C106.9 14.6477 107.631 14.3182 108.442 14.0909C109.26 13.8561 110.124 13.7045 111.033 13.6364C112.018 13.5606 112.817 13.4659 113.43 13.3523C114.044 13.2386 114.502 13.0833 114.805 12.8864C115.108 12.6894 115.29 12.4242 115.351 12.0909V12.0455C115.419 11.5909 115.298 11.2424 114.987 11C114.684 10.7576 114.26 10.6364 113.714 10.6364C113.124 10.6364 112.612 10.7652 112.18 11.0227C111.756 11.2803 111.464 11.6818 111.305 12.2273H105.533C105.775 11.1667 106.271 10.1894 107.021 9.29545C107.779 8.39394 108.783 7.67424 110.033 7.13636C111.29 6.59091 112.79 6.31818 114.533 6.31818C115.775 6.31818 116.866 6.46591 117.805 6.76136C118.745 7.04924 119.521 7.45455 120.135 7.97727C120.756 8.49242 121.192 9.09848 121.442 9.79545C121.699 10.4848 121.76 11.2348 121.624 12.0455L119.624 24H113.76L114.169 21.5455H114.033C113.578 22.197 113.067 22.7235 112.499 23.125C111.938 23.5265 111.324 23.8182 110.658 24C109.999 24.1818 109.29 24.2727 108.533 24.2727ZM111.26 20.3182C111.73 20.3182 112.192 20.2197 112.646 20.0227C113.101 19.8258 113.491 19.5417 113.817 19.1705C114.143 18.7992 114.351 18.3485 114.442 17.8182L114.669 16.3636C114.502 16.4318 114.317 16.4962 114.112 16.5568C113.915 16.6098 113.707 16.6629 113.487 16.7159C113.275 16.7689 113.048 16.8182 112.805 16.8636C112.571 16.9091 112.328 16.9545 112.078 17C111.578 17.0758 111.158 17.2008 110.817 17.375C110.476 17.5417 110.211 17.75 110.021 18C109.832 18.2424 109.714 18.5152 109.669 18.8182C109.601 19.2955 109.711 19.6667 109.999 19.9318C110.294 20.1894 110.714 20.3182 111.26 20.3182ZM123.425 11.2273L124.197 6.54545H141.107L140.334 11.2273H134.788L132.652 24H126.743L128.879 11.2273H123.425ZM148.408 24.3182C146.544 24.3182 144.999 23.9621 143.771 23.25C142.544 22.5303 141.68 21.5 141.18 20.1591C140.68 18.8106 140.589 17.197 140.908 15.3182C141.211 13.5152 141.836 11.9394 142.783 10.5909C143.737 9.24242 144.938 8.19318 146.385 7.44318C147.839 6.69318 149.468 6.31818 151.271 6.31818C152.589 6.31818 153.745 6.52273 154.737 6.93182C155.737 7.34091 156.552 7.93561 157.18 8.71591C157.809 9.49621 158.233 10.4394 158.453 11.5455C158.68 12.6439 158.68 13.8864 158.453 15.2727L158.226 16.7273H142.635L143.18 13.2727H152.999C153.074 12.7727 153.025 12.3333 152.851 11.9545C152.684 11.5682 152.415 11.2689 152.044 11.0568C151.68 10.8371 151.241 10.7273 150.726 10.7273C150.211 10.7273 149.726 10.8371 149.271 11.0568C148.824 11.2765 148.442 11.5833 148.124 11.9773C147.813 12.3712 147.605 12.8333 147.499 13.3636L146.817 17C146.726 17.5606 146.76 18.0606 146.919 18.5C147.078 18.9394 147.355 19.2841 147.749 19.5341C148.143 19.7841 148.65 19.9091 149.271 19.9091C149.696 19.9091 150.097 19.8523 150.476 19.7386C150.862 19.6174 151.203 19.4432 151.499 19.2159C151.802 18.9811 152.044 18.697 152.226 18.3636H157.953C157.544 19.5758 156.896 20.6288 156.01 21.5227C155.131 22.4091 154.048 23.0985 152.76 23.5909C151.48 24.0758 150.029 24.3182 148.408 24.3182ZM158.876 24L159.604 19.2727H160.149C160.49 19.2727 160.808 19.1742 161.104 18.9773C161.399 18.7803 161.676 18.4773 161.933 18.0682C162.191 17.6591 162.426 17.1402 162.638 16.5114C162.857 15.8826 163.058 15.1364 163.24 14.2727L164.786 6.54545H179.149L176.24 24H170.331L172.467 11.2273H169.558L168.513 15.9545C168.187 17.4394 167.763 18.697 167.24 19.7273C166.725 20.7576 166.13 21.5871 165.456 22.2159C164.782 22.8371 164.043 23.2917 163.24 23.5795C162.445 23.8598 161.596 24 160.695 24H158.876ZM189.291 24L191.428 11.2273H189.064C188.268 11.2273 187.655 11.4091 187.223 11.7727C186.799 12.1364 186.564 12.5 186.518 12.8636C186.428 13.25 186.549 13.6136 186.882 13.9545C187.223 14.2879 187.814 14.4545 188.655 14.4545H193.109L192.473 18.2273H188.018C186.306 18.2273 184.867 17.9886 183.7 17.5114C182.534 17.0341 181.685 16.375 181.155 15.5341C180.625 14.6932 180.458 13.7273 180.655 12.6364C180.837 11.4545 181.333 10.4053 182.143 9.48864C182.962 8.57197 184.026 7.85227 185.337 7.32954C186.655 6.80682 188.155 6.54545 189.837 6.54545H198.018L195.109 24H189.291ZM178.564 24L184.882 14.6364H190.655L184.337 24H178.564ZM210.075 17.5L215.712 6.54545H220.166L210.939 24H207.03L203.803 6.54545H208.257L210.075 17.5ZM206.984 6.54545L204.075 24H198.166L201.075 6.54545H206.984ZM214.303 24L217.212 6.54545H223.03L220.121 24H214.303Z" fill="white"/>
</svg>
